<?xml version="1.0" encoding="utf-8" standalone="no"?>
<!DOCTYPE svg PUBLIC "-//W3C//DTD SVG 1.1//EN"
  "http://www.w3.org/Graphics/SVG/1.1/DTD/svg11.dtd">
<svg xmlns:xlink="http://www.w3.org/1999/xlink" width="617.273877pt" height="382.098594pt" viewBox="0 0 617.273877 382.098594" xmlns="http://www.w3.org/2000/svg" version="1.1">
 <metadata>
  <rdf:RDF xmlns:dc="http://purl.org/dc/elements/1.1/" xmlns:cc="http://creativecommons.org/ns#" xmlns:rdf="http://www.w3.org/1999/02/22-rdf-syntax-ns#">
   <cc:Work>
    <dc:type rdf:resource="http://purl.org/dc/dcmitype/StillImage"/>
    <dc:date>2026-06-26T19:23:36.079376</dc:date>
    <dc:format>image/svg+xml</dc:format>
    <dc:creator>
     <cc:Agent>
      <dc:title>Matplotlib v3.11.0, https://matplotlib.org/</dc:title>
     </cc:Agent>
    </dc:creator>
   </cc:Work>
  </rdf:RDF>
 </metadata>
 <defs>
  <style type="text/css">*{stroke-linejoin: round; stroke-linecap: butt}</style>
 </defs>
 <g id="figure_1">
  <g id="patch_1">
   <path d="M 0 382.098594 
L 617.273877 382.098594 
L 617.273877 0 
L 0 0 
z
" style="fill: #ffffff"/>
  </g>
  <g id="axes_1">
   <g id="patch_2">
    <path d="M 61.997188 328.115078 
L 582.116278 328.115078 
L 582.116278 47.397656 
L 61.997188 47.397656 
z
" style="fill: #ffffff"/>
   </g>
   <g id="matplotlib.axis_1">
    <g id="xtick_1">
     <g id="line2d_1">
      <path d="M 208.634422 328.115078 
L 208.634422 47.397656 
" clip-path="url(#p062513ac72)" style="fill: none; stroke: #e2e8f0; stroke-linecap: square"/>
     </g>
     <g id="line2d_2">
      <defs>
       <path id="m742bbacb8c" d="M 0 0 
L 0 3.5 
" style="stroke: #64748b; stroke-width: 0.8"/>
      </defs>
      <g>
       <use xlink:href="#m742bbacb8c" x="208.634422" y="328.115078" style="fill: #64748b; stroke: #64748b; stroke-width: 0.8"/>
      </g>
     </g>
     <g id="text_1">
      <!-- $\mathdefault{10^{1}}$ -->
      <g style="fill: #64748b" transform="translate(198.954422 345.345078) scale(0.11 -0.11)">
       <defs>
        <path id="DejaVuSans-14" d="M 794 531 
L 1825 531 
L 1825 4091 
L 703 3866 
L 703 4441 
L 1819 4666 
L 2450 4666 
L 2450 531 
L 3481 531 
L 3481 0 
L 794 0 
L 794 531 
z
" transform="scale(0.015625)"/>
        <path id="DejaVuSans-13" d="M 2034 4250 
Q 1547 4250 1301 3770 
Q 1056 3291 1056 2328 
Q 1056 1369 1301 889 
Q 1547 409 2034 409 
Q 2525 409 2770 889 
Q 3016 1369 3016 2328 
Q 3016 3291 2770 3770 
Q 2525 4250 2034 4250 
z
M 2034 4750 
Q 2819 4750 3233 4129 
Q 3647 3509 3647 2328 
Q 3647 1150 3233 529 
Q 2819 -91 2034 -91 
Q 1250 -91 836 529 
Q 422 1150 422 2328 
Q 422 3509 836 4129 
Q 1250 4750 2034 4750 
z
" transform="scale(0.015625)"/>
       </defs>
       <use xlink:href="#DejaVuSans-14" transform="translate(0 0.665625)"/>
       <use xlink:href="#DejaVuSans-13" transform="translate(63.623047 0.665625)"/>
       <use xlink:href="#DejaVuSans-14" transform="translate(128.203125 41.965625) scale(0.7)"/>
      </g>
     </g>
    </g>
    <g id="xtick_2">
     <g id="line2d_3">
      <path d="M 447.136302 328.115078 
L 447.136302 47.397656 
" clip-path="url(#p062513ac72)" style="fill: none; stroke: #e2e8f0; stroke-linecap: square"/>
     </g>
     <g id="line2d_4">
      <g>
       <use xlink:href="#m742bbacb8c" x="447.136302" y="328.115078" style="fill: #64748b; stroke: #64748b; stroke-width: 0.8"/>
      </g>
     </g>
     <g id="text_2">
      <!-- $\mathdefault{10^{2}}$ -->
      <g style="fill: #64748b" transform="translate(437.456302 345.455078) scale(0.11 -0.11)">
       <defs>
        <path id="DejaVuSans-15" d="M 1228 531 
L 3431 531 
L 3431 0 
L 469 0 
L 469 531 
Q 828 903 1448 1529 
Q 2069 2156 2228 2338 
Q 2531 2678 2651 2914 
Q 2772 3150 2772 3378 
Q 2772 3750 2511 3984 
Q 2250 4219 1831 4219 
Q 1534 4219 1204 4116 
Q 875 4013 500 3803 
L 500 4441 
Q 881 4594 1212 4672 
Q 1544 4750 1819 4750 
Q 2544 4750 2975 4387 
Q 3406 4025 3406 3419 
Q 3406 3131 3298 2873 
Q 3191 2616 2906 2266 
Q 2828 2175 2409 1742 
Q 1991 1309 1228 531 
z
" transform="scale(0.015625)"/>
       </defs>
       <use xlink:href="#DejaVuSans-14" transform="translate(0 0.746875)"/>
       <use xlink:href="#DejaVuSans-13" transform="translate(63.623047 0.746875)"/>
       <use xlink:href="#DejaVuSans-15" transform="translate(128.203125 42.046875) scale(0.7)"/>
      </g>
     </g>
    </g>
    <g id="xtick_3">
     <g id="line2d_5">
      <defs>
       <path id="me0df661b32" d="M 0 0 
L 0 2 
" style="stroke: #64748b; stroke-width: 0.6"/>
      </defs>
      <g>
       <use xlink:href="#me0df661b32" x="83.926858" y="328.115078" style="fill: #64748b; stroke: #64748b; stroke-width: 0.6"/>
      </g>
     </g>
    </g>
    <g id="xtick_4">
     <g id="line2d_6">
      <g>
       <use xlink:href="#me0df661b32" x="113.724982" y="328.115078" style="fill: #64748b; stroke: #64748b; stroke-width: 0.6"/>
      </g>
     </g>
    </g>
    <g id="xtick_5">
     <g id="line2d_7">
      <g>
       <use xlink:href="#me0df661b32" x="136.838202" y="328.115078" style="fill: #64748b; stroke: #64748b; stroke-width: 0.6"/>
      </g>
     </g>
    </g>
    <g id="xtick_6">
     <g id="line2d_8">
      <g>
       <use xlink:href="#me0df661b32" x="155.723078" y="328.115078" style="fill: #64748b; stroke: #64748b; stroke-width: 0.6"/>
      </g>
     </g>
    </g>
    <g id="xtick_7">
     <g id="line2d_9">
      <g>
       <use xlink:href="#me0df661b32" x="171.690014" y="328.115078" style="fill: #64748b; stroke: #64748b; stroke-width: 0.6"/>
      </g>
     </g>
    </g>
    <g id="xtick_8">
     <g id="line2d_10">
      <g>
       <use xlink:href="#me0df661b32" x="185.521202" y="328.115078" style="fill: #64748b; stroke: #64748b; stroke-width: 0.6"/>
      </g>
     </g>
    </g>
    <g id="xtick_9">
     <g id="line2d_11">
      <g>
       <use xlink:href="#me0df661b32" x="197.721175" y="328.115078" style="fill: #64748b; stroke: #64748b; stroke-width: 0.6"/>
      </g>
     </g>
    </g>
    <g id="xtick_10">
     <g id="line2d_12">
      <g>
       <use xlink:href="#me0df661b32" x="280.430642" y="328.115078" style="fill: #64748b; stroke: #64748b; stroke-width: 0.6"/>
      </g>
     </g>
    </g>
    <g id="xtick_11">
     <g id="line2d_13">
      <g>
       <use xlink:href="#me0df661b32" x="322.428739" y="328.115078" style="fill: #64748b; stroke: #64748b; stroke-width: 0.6"/>
      </g>
     </g>
    </g>
    <g id="xtick_12">
     <g id="line2d_14">
      <g>
       <use xlink:href="#me0df661b32" x="352.226862" y="328.115078" style="fill: #64748b; stroke: #64748b; stroke-width: 0.6"/>
      </g>
     </g>
    </g>
    <g id="xtick_13">
     <g id="line2d_15">
      <g>
       <use xlink:href="#me0df661b32" x="375.340082" y="328.115078" style="fill: #64748b; stroke: #64748b; stroke-width: 0.6"/>
      </g>
     </g>
    </g>
    <g id="xtick_14">
     <g id="line2d_16">
      <g>
       <use xlink:href="#me0df661b32" x="394.224958" y="328.115078" style="fill: #64748b; stroke: #64748b; stroke-width: 0.6"/>
      </g>
     </g>
    </g>
    <g id="xtick_15">
     <g id="line2d_17">
      <g>
       <use xlink:href="#me0df661b32" x="410.191894" y="328.115078" style="fill: #64748b; stroke: #64748b; stroke-width: 0.6"/>
      </g>
     </g>
    </g>
    <g id="xtick_16">
     <g id="line2d_18">
      <g>
       <use xlink:href="#me0df661b32" x="424.023082" y="328.115078" style="fill: #64748b; stroke: #64748b; stroke-width: 0.6"/>
      </g>
     </g>
    </g>
    <g id="xtick_17">
     <g id="line2d_19">
      <g>
       <use xlink:href="#me0df661b32" x="436.223055" y="328.115078" style="fill: #64748b; stroke: #64748b; stroke-width: 0.6"/>
      </g>
     </g>
    </g>
    <g id="xtick_18">
     <g id="line2d_20">
      <g>
       <use xlink:href="#me0df661b32" x="518.932522" y="328.115078" style="fill: #64748b; stroke: #64748b; stroke-width: 0.6"/>
      </g>
     </g>
    </g>
    <g id="xtick_19">
     <g id="line2d_21">
      <g>
       <use xlink:href="#me0df661b32" x="560.930619" y="328.115078" style="fill: #64748b; stroke: #64748b; stroke-width: 0.6"/>
      </g>
     </g>
    </g>
    <g id="text_3">
     <!-- Memory (MB, log scale) — left is better -->
     <g style="fill: #64748b" transform="translate(204.942358 361.215781) scale(0.12 -0.12)">
      <defs>
       <path id="DejaVuSans-30" d="M 628 4666 
L 1569 4666 
L 2759 1491 
L 3956 4666 
L 4897 4666 
L 4897 0 
L 4281 0 
L 4281 4097 
L 3078 897 
L 2444 897 
L 1241 4097 
L 1241 0 
L 628 0 
L 628 4666 
z
" transform="scale(0.015625)"/>
       <path id="DejaVuSans-48" d="M 3597 1894 
L 3597 1613 
L 953 1613 
Q 991 1019 1311 708 
Q 1631 397 2203 397 
Q 2534 397 2845 478 
Q 3156 559 3463 722 
L 3463 178 
Q 3153 47 2828 -22 
Q 2503 -91 2169 -91 
Q 1331 -91 842 396 
Q 353 884 353 1716 
Q 353 2575 817 3079 
Q 1281 3584 2069 3584 
Q 2775 3584 3186 3129 
Q 3597 2675 3597 1894 
z
M 3022 2063 
Q 3016 2534 2758 2815 
Q 2500 3097 2075 3097 
Q 1594 3097 1305 2825 
Q 1016 2553 972 2059 
L 3022 2063 
z
" transform="scale(0.015625)"/>
       <path id="DejaVuSans-50" d="M 3328 2828 
Q 3544 3216 3844 3400 
Q 4144 3584 4550 3584 
Q 5097 3584 5394 3201 
Q 5691 2819 5691 2113 
L 5691 0 
L 5113 0 
L 5113 2094 
Q 5113 2597 4934 2840 
Q 4756 3084 4391 3084 
Q 3944 3084 3684 2787 
Q 3425 2491 3425 1978 
L 3425 0 
L 2847 0 
L 2847 2094 
Q 2847 2600 2669 2842 
Q 2491 3084 2119 3084 
Q 1678 3084 1418 2786 
Q 1159 2488 1159 1978 
L 1159 0 
L 581 0 
L 581 3500 
L 1159 3500 
L 1159 2956 
Q 1356 3278 1631 3431 
Q 1906 3584 2284 3584 
Q 2666 3584 2933 3390 
Q 3200 3197 3328 2828 
z
" transform="scale(0.015625)"/>
       <path id="DejaVuSans-52" d="M 1959 3097 
Q 1497 3097 1228 2736 
Q 959 2375 959 1747 
Q 959 1119 1226 758 
Q 1494 397 1959 397 
Q 2419 397 2687 759 
Q 2956 1122 2956 1747 
Q 2956 2369 2687 2733 
Q 2419 3097 1959 3097 
z
M 1959 3584 
Q 2709 3584 3137 3096 
Q 3566 2609 3566 1747 
Q 3566 888 3137 398 
Q 2709 -91 1959 -91 
Q 1206 -91 779 398 
Q 353 888 353 1747 
Q 353 2609 779 3096 
Q 1206 3584 1959 3584 
z
" transform="scale(0.015625)"/>
       <path id="DejaVuSans-55" d="M 2631 2963 
Q 2534 3019 2420 3045 
Q 2306 3072 2169 3072 
Q 1681 3072 1420 2755 
Q 1159 2438 1159 1844 
L 1159 0 
L 581 0 
L 581 3500 
L 1159 3500 
L 1159 2956 
Q 1341 3275 1631 3429 
Q 1922 3584 2338 3584 
Q 2397 3584 2469 3576 
Q 2541 3569 2628 3553 
L 2631 2963 
z
" transform="scale(0.015625)"/>
       <path id="DejaVuSans-5c" d="M 2059 -325 
Q 1816 -950 1584 -1140 
Q 1353 -1331 966 -1331 
L 506 -1331 
L 506 -850 
L 844 -850 
Q 1081 -850 1212 -737 
Q 1344 -625 1503 -206 
L 1606 56 
L 191 3500 
L 800 3500 
L 1894 763 
L 2988 3500 
L 3597 3500 
L 2059 -325 
z
" transform="scale(0.015625)"/>
       <path id="DejaVuSans-3" transform="scale(0.015625)"/>
       <path id="DejaVuSans-b" d="M 1984 4856 
Q 1566 4138 1362 3434 
Q 1159 2731 1159 2009 
Q 1159 1288 1364 580 
Q 1569 -128 1984 -844 
L 1484 -844 
Q 1016 -109 783 600 
Q 550 1309 550 2009 
Q 550 2706 781 3412 
Q 1013 4119 1484 4856 
L 1984 4856 
z
" transform="scale(0.015625)"/>
       <path id="DejaVuSans-25" d="M 1259 2228 
L 1259 519 
L 2272 519 
Q 2781 519 3026 730 
Q 3272 941 3272 1375 
Q 3272 1813 3026 2020 
Q 2781 2228 2272 2228 
L 1259 2228 
z
M 1259 4147 
L 1259 2741 
L 2194 2741 
Q 2656 2741 2882 2914 
Q 3109 3088 3109 3444 
Q 3109 3797 2882 3972 
Q 2656 4147 2194 4147 
L 1259 4147 
z
M 628 4666 
L 2241 4666 
Q 2963 4666 3353 4366 
Q 3744 4066 3744 3513 
Q 3744 3084 3544 2831 
Q 3344 2578 2956 2516 
Q 3422 2416 3680 2098 
Q 3938 1781 3938 1306 
Q 3938 681 3513 340 
Q 3088 0 2303 0 
L 628 0 
L 628 4666 
z
" transform="scale(0.015625)"/>
       <path id="DejaVuSans-f" d="M 750 794 
L 1409 794 
L 1409 256 
L 897 -744 
L 494 -744 
L 750 256 
L 750 794 
z
" transform="scale(0.015625)"/>
       <path id="DejaVuSans-4f" d="M 603 4863 
L 1178 4863 
L 1178 0 
L 603 0 
L 603 4863 
z
" transform="scale(0.015625)"/>
       <path id="DejaVuSans-4a" d="M 2906 1791 
Q 2906 2416 2648 2759 
Q 2391 3103 1925 3103 
Q 1463 3103 1205 2759 
Q 947 2416 947 1791 
Q 947 1169 1205 825 
Q 1463 481 1925 481 
Q 2391 481 2648 825 
Q 2906 1169 2906 1791 
z
M 3481 434 
Q 3481 -459 3084 -895 
Q 2688 -1331 1869 -1331 
Q 1566 -1331 1297 -1286 
Q 1028 -1241 775 -1147 
L 775 -588 
Q 1028 -725 1275 -790 
Q 1522 -856 1778 -856 
Q 2344 -856 2625 -561 
Q 2906 -266 2906 331 
L 2906 616 
Q 2728 306 2450 153 
Q 2172 0 1784 0 
Q 1141 0 747 490 
Q 353 981 353 1791 
Q 353 2603 747 3093 
Q 1141 3584 1784 3584 
Q 2172 3584 2450 3431 
Q 2728 3278 2906 2969 
L 2906 3500 
L 3481 3500 
L 3481 434 
z
" transform="scale(0.015625)"/>
       <path id="DejaVuSans-56" d="M 2834 3397 
L 2834 2853 
Q 2591 2978 2328 3040 
Q 2066 3103 1784 3103 
Q 1356 3103 1142 2972 
Q 928 2841 928 2578 
Q 928 2378 1081 2264 
Q 1234 2150 1697 2047 
L 1894 2003 
Q 2506 1872 2764 1633 
Q 3022 1394 3022 966 
Q 3022 478 2636 193 
Q 2250 -91 1575 -91 
Q 1294 -91 989 -36 
Q 684 19 347 128 
L 347 722 
Q 666 556 975 473 
Q 1284 391 1588 391 
Q 1994 391 2212 530 
Q 2431 669 2431 922 
Q 2431 1156 2273 1281 
Q 2116 1406 1581 1522 
L 1381 1569 
Q 847 1681 609 1914 
Q 372 2147 372 2553 
Q 372 3047 722 3315 
Q 1072 3584 1716 3584 
Q 2034 3584 2315 3537 
Q 2597 3491 2834 3397 
z
" transform="scale(0.015625)"/>
       <path id="DejaVuSans-46" d="M 3122 3366 
L 3122 2828 
Q 2878 2963 2633 3030 
Q 2388 3097 2138 3097 
Q 1578 3097 1268 2742 
Q 959 2388 959 1747 
Q 959 1106 1268 751 
Q 1578 397 2138 397 
Q 2388 397 2633 464 
Q 2878 531 3122 666 
L 3122 134 
Q 2881 22 2623 -34 
Q 2366 -91 2075 -91 
Q 1284 -91 818 406 
Q 353 903 353 1747 
Q 353 2603 823 3093 
Q 1294 3584 2113 3584 
Q 2378 3584 2631 3529 
Q 2884 3475 3122 3366 
z
" transform="scale(0.015625)"/>
       <path id="DejaVuSans-44" d="M 2194 1759 
Q 1497 1759 1228 1600 
Q 959 1441 959 1056 
Q 959 750 1161 570 
Q 1363 391 1709 391 
Q 2188 391 2477 730 
Q 2766 1069 2766 1631 
L 2766 1759 
L 2194 1759 
z
M 3341 1997 
L 3341 0 
L 2766 0 
L 2766 531 
Q 2569 213 2275 61 
Q 1981 -91 1556 -91 
Q 1019 -91 701 211 
Q 384 513 384 1019 
Q 384 1609 779 1909 
Q 1175 2209 1959 2209 
L 2766 2209 
L 2766 2266 
Q 2766 2663 2505 2880 
Q 2244 3097 1772 3097 
Q 1472 3097 1187 3025 
Q 903 2953 641 2809 
L 641 3341 
Q 956 3463 1253 3523 
Q 1550 3584 1831 3584 
Q 2591 3584 2966 3190 
Q 3341 2797 3341 1997 
z
" transform="scale(0.015625)"/>
       <path id="DejaVuSans-c" d="M 513 4856 
L 1013 4856 
Q 1481 4119 1714 3412 
Q 1947 2706 1947 2009 
Q 1947 1309 1714 600 
Q 1481 -109 1013 -844 
L 513 -844 
Q 928 -128 1133 580 
Q 1338 1288 1338 2009 
Q 1338 2731 1133 3434 
Q 928 4138 513 4856 
z
" transform="scale(0.015625)"/>
       <path id="DejaVuSans-af6" d="M 313 1978 
L 6088 1978 
L 6088 1528 
L 313 1528 
L 313 1978 
z
" transform="scale(0.015625)"/>
       <path id="DejaVuSans-49" d="M 2375 4863 
L 2375 4384 
L 1825 4384 
Q 1516 4384 1395 4259 
Q 1275 4134 1275 3809 
L 1275 3500 
L 2222 3500 
L 2222 3053 
L 1275 3053 
L 1275 0 
L 697 0 
L 697 3053 
L 147 3053 
L 147 3500 
L 697 3500 
L 697 3744 
Q 697 4328 969 4595 
Q 1241 4863 1831 4863 
L 2375 4863 
z
" transform="scale(0.015625)"/>
       <path id="DejaVuSans-57" d="M 1172 4494 
L 1172 3500 
L 2356 3500 
L 2356 3053 
L 1172 3053 
L 1172 1153 
Q 1172 725 1289 603 
Q 1406 481 1766 481 
L 2356 481 
L 2356 0 
L 1766 0 
Q 1100 0 847 248 
Q 594 497 594 1153 
L 594 3053 
L 172 3053 
L 172 3500 
L 594 3500 
L 594 4494 
L 1172 4494 
z
" transform="scale(0.015625)"/>
       <path id="DejaVuSans-4c" d="M 603 3500 
L 1178 3500 
L 1178 0 
L 603 0 
L 603 3500 
z
M 603 4863 
L 1178 4863 
L 1178 4134 
L 603 4134 
L 603 4863 
z
" transform="scale(0.015625)"/>
       <path id="DejaVuSans-45" d="M 3116 1747 
Q 3116 2381 2855 2742 
Q 2594 3103 2138 3103 
Q 1681 3103 1420 2742 
Q 1159 2381 1159 1747 
Q 1159 1113 1420 752 
Q 1681 391 2138 391 
Q 2594 391 2855 752 
Q 3116 1113 3116 1747 
z
M 1159 2969 
Q 1341 3281 1617 3432 
Q 1894 3584 2278 3584 
Q 2916 3584 3314 3078 
Q 3713 2572 3713 1747 
Q 3713 922 3314 415 
Q 2916 -91 2278 -91 
Q 1894 -91 1617 61 
Q 1341 213 1159 525 
L 1159 0 
L 581 0 
L 581 4863 
L 1159 4863 
L 1159 2969 
z
" transform="scale(0.015625)"/>
      </defs>
      <use xlink:href="#DejaVuSans-30"/>
      <use xlink:href="#DejaVuSans-48" transform="translate(86.28125 0)"/>
      <use xlink:href="#DejaVuSans-50" transform="translate(147.8125 0)"/>
      <use xlink:href="#DejaVuSans-52" transform="translate(245.21875 0)"/>
      <use xlink:href="#DejaVuSans-55" transform="translate(306.40625 0)"/>
      <use xlink:href="#DejaVuSans-5c" transform="translate(347.515625 0)"/>
      <use xlink:href="#DejaVuSans-3" transform="translate(406.703125 0)"/>
      <use xlink:href="#DejaVuSans-b" transform="translate(438.484375 0)"/>
      <use xlink:href="#DejaVuSans-30" transform="translate(477.5 0)"/>
      <use xlink:href="#DejaVuSans-25" transform="translate(563.78125 0)"/>
      <use xlink:href="#DejaVuSans-f" transform="translate(632.390625 0)"/>
      <use xlink:href="#DejaVuSans-3" transform="translate(664.171875 0)"/>
      <use xlink:href="#DejaVuSans-4f" transform="translate(695.953125 0)"/>
      <use xlink:href="#DejaVuSans-52" transform="translate(723.734375 0)"/>
      <use xlink:href="#DejaVuSans-4a" transform="translate(784.921875 0)"/>
      <use xlink:href="#DejaVuSans-3" transform="translate(848.40625 0)"/>
      <use xlink:href="#DejaVuSans-56" transform="translate(880.1875 0)"/>
      <use xlink:href="#DejaVuSans-46" transform="translate(932.28125 0)"/>
      <use xlink:href="#DejaVuSans-44" transform="translate(987.265625 0)"/>
      <use xlink:href="#DejaVuSans-4f" transform="translate(1048.546875 0)"/>
      <use xlink:href="#DejaVuSans-48" transform="translate(1076.328125 0)"/>
      <use xlink:href="#DejaVuSans-c" transform="translate(1137.859375 0)"/>
      <use xlink:href="#DejaVuSans-3" transform="translate(1176.875 0)"/>
      <use xlink:href="#DejaVuSans-af6" transform="translate(1208.65625 0)"/>
      <use xlink:href="#DejaVuSans-3" transform="translate(1308.65625 0)"/>
      <use xlink:href="#DejaVuSans-4f" transform="translate(1340.4375 0)"/>
      <use xlink:href="#DejaVuSans-48" transform="translate(1368.21875 0)"/>
      <use xlink:href="#DejaVuSans-49" transform="translate(1429.75 0)"/>
      <use xlink:href="#DejaVuSans-57" transform="translate(1463.203125 0)"/>
      <use xlink:href="#DejaVuSans-3" transform="translate(1502.40625 0)"/>
      <use xlink:href="#DejaVuSans-4c" transform="translate(1534.1875 0)"/>
      <use xlink:href="#DejaVuSans-56" transform="translate(1561.96875 0)"/>
      <use xlink:href="#DejaVuSans-3" transform="translate(1614.0625 0)"/>
      <use xlink:href="#DejaVuSans-45" transform="translate(1645.84375 0)"/>
      <use xlink:href="#DejaVuSans-48" transform="translate(1709.328125 0)"/>
      <use xlink:href="#DejaVuSans-57" transform="translate(1770.859375 0)"/>
      <use xlink:href="#DejaVuSans-57" transform="translate(1810.0625 0)"/>
      <use xlink:href="#DejaVuSans-48" transform="translate(1849.265625 0)"/>
      <use xlink:href="#DejaVuSans-55" transform="translate(1910.796875 0)"/>
     </g>
    </g>
   </g>
   <g id="matplotlib.axis_2">
    <g id="ytick_1">
     <g id="line2d_22">
      <path d="M 61.997188 303.704868 
L 582.116278 303.704868 
" clip-path="url(#p062513ac72)" style="fill: none; stroke: #e2e8f0; stroke-linecap: square"/>
     </g>
     <g id="line2d_23">
      <defs>
       <path id="m5ebc224d24" d="M 0 0 
L -3.5 0 
" style="stroke: #64748b; stroke-width: 0.8"/>
      </defs>
      <g>
       <use xlink:href="#m5ebc224d24" x="61.997188" y="303.704868" style="fill: #64748b; stroke: #64748b; stroke-width: 0.8"/>
      </g>
     </g>
     <g id="text_4">
      <!-- 80 -->
      <g style="fill: #64748b" transform="translate(40.999688 307.883578) scale(0.11 -0.11)">
       <defs>
        <path id="DejaVuSans-1b" d="M 2034 2216 
Q 1584 2216 1326 1975 
Q 1069 1734 1069 1313 
Q 1069 891 1326 650 
Q 1584 409 2034 409 
Q 2484 409 2743 651 
Q 3003 894 3003 1313 
Q 3003 1734 2745 1975 
Q 2488 2216 2034 2216 
z
M 1403 2484 
Q 997 2584 770 2862 
Q 544 3141 544 3541 
Q 544 4100 942 4425 
Q 1341 4750 2034 4750 
Q 2731 4750 3128 4425 
Q 3525 4100 3525 3541 
Q 3525 3141 3298 2862 
Q 3072 2584 2669 2484 
Q 3125 2378 3379 2068 
Q 3634 1759 3634 1313 
Q 3634 634 3220 271 
Q 2806 -91 2034 -91 
Q 1263 -91 848 271 
Q 434 634 434 1313 
Q 434 1759 690 2068 
Q 947 2378 1403 2484 
z
M 1172 3481 
Q 1172 3119 1398 2916 
Q 1625 2713 2034 2713 
Q 2441 2713 2670 2916 
Q 2900 3119 2900 3481 
Q 2900 3844 2670 4047 
Q 2441 4250 2034 4250 
Q 1625 4250 1398 4047 
Q 1172 3844 1172 3481 
z
" transform="scale(0.015625)"/>
       </defs>
       <use xlink:href="#DejaVuSans-1b"/>
       <use xlink:href="#DejaVuSans-13" transform="translate(63.625 0)"/>
      </g>
     </g>
    </g>
    <g id="ytick_2">
     <g id="line2d_24">
      <path d="M 61.997188 242.679341 
L 582.116278 242.679341 
" clip-path="url(#p062513ac72)" style="fill: none; stroke: #e2e8f0; stroke-linecap: square"/>
     </g>
     <g id="line2d_25">
      <g>
       <use xlink:href="#m5ebc224d24" x="61.997188" y="242.679341" style="fill: #64748b; stroke: #64748b; stroke-width: 0.8"/>
      </g>
     </g>
     <g id="text_5">
      <!-- 85 -->
      <g style="fill: #64748b" transform="translate(40.999688 246.858052) scale(0.11 -0.11)">
       <defs>
        <path id="DejaVuSans-18" d="M 691 4666 
L 3169 4666 
L 3169 4134 
L 1269 4134 
L 1269 2991 
Q 1406 3038 1543 3061 
Q 1681 3084 1819 3084 
Q 2600 3084 3056 2656 
Q 3513 2228 3513 1497 
Q 3513 744 3044 326 
Q 2575 -91 1722 -91 
Q 1428 -91 1123 -41 
Q 819 9 494 109 
L 494 744 
Q 775 591 1075 516 
Q 1375 441 1709 441 
Q 2250 441 2565 725 
Q 2881 1009 2881 1497 
Q 2881 1984 2565 2268 
Q 2250 2553 1709 2553 
Q 1456 2553 1204 2497 
Q 953 2441 691 2322 
L 691 4666 
z
" transform="scale(0.015625)"/>
       </defs>
       <use xlink:href="#DejaVuSans-1b"/>
       <use xlink:href="#DejaVuSans-18" transform="translate(63.625 0)"/>
      </g>
     </g>
    </g>
    <g id="ytick_3">
     <g id="line2d_26">
      <path d="M 61.997188 181.653815 
L 582.116278 181.653815 
" clip-path="url(#p062513ac72)" style="fill: none; stroke: #e2e8f0; stroke-linecap: square"/>
     </g>
     <g id="line2d_27">
      <g>
       <use xlink:href="#m5ebc224d24" x="61.997188" y="181.653815" style="fill: #64748b; stroke: #64748b; stroke-width: 0.8"/>
      </g>
     </g>
     <g id="text_6">
      <!-- 90 -->
      <g style="fill: #64748b" transform="translate(40.999688 185.832525) scale(0.11 -0.11)">
       <defs>
        <path id="DejaVuSans-1c" d="M 703 97 
L 703 672 
Q 941 559 1184 500 
Q 1428 441 1663 441 
Q 2288 441 2617 861 
Q 2947 1281 2994 2138 
Q 2813 1869 2534 1725 
Q 2256 1581 1919 1581 
Q 1219 1581 811 2004 
Q 403 2428 403 3163 
Q 403 3881 828 4315 
Q 1253 4750 1959 4750 
Q 2769 4750 3195 4129 
Q 3622 3509 3622 2328 
Q 3622 1225 3098 567 
Q 2575 -91 1691 -91 
Q 1453 -91 1209 -44 
Q 966 3 703 97 
z
M 1959 2075 
Q 2384 2075 2632 2365 
Q 2881 2656 2881 3163 
Q 2881 3666 2632 3958 
Q 2384 4250 1959 4250 
Q 1534 4250 1286 3958 
Q 1038 3666 1038 3163 
Q 1038 2656 1286 2365 
Q 1534 2075 1959 2075 
z
" transform="scale(0.015625)"/>
       </defs>
       <use xlink:href="#DejaVuSans-1c"/>
       <use xlink:href="#DejaVuSans-13" transform="translate(63.625 0)"/>
      </g>
     </g>
    </g>
    <g id="ytick_4">
     <g id="line2d_28">
      <path d="M 61.997188 120.628288 
L 582.116278 120.628288 
" clip-path="url(#p062513ac72)" style="fill: none; stroke: #e2e8f0; stroke-linecap: square"/>
     </g>
     <g id="line2d_29">
      <g>
       <use xlink:href="#m5ebc224d24" x="61.997188" y="120.628288" style="fill: #64748b; stroke: #64748b; stroke-width: 0.8"/>
      </g>
     </g>
     <g id="text_7">
      <!-- 95 -->
      <g style="fill: #64748b" transform="translate(40.999688 124.806999) scale(0.11 -0.11)">
       <use xlink:href="#DejaVuSans-1c"/>
       <use xlink:href="#DejaVuSans-18" transform="translate(63.625 0)"/>
      </g>
     </g>
    </g>
    <g id="ytick_5">
     <g id="line2d_30">
      <path d="M 61.997188 59.602762 
L 582.116278 59.602762 
" clip-path="url(#p062513ac72)" style="fill: none; stroke: #e2e8f0; stroke-linecap: square"/>
     </g>
     <g id="line2d_31">
      <g>
       <use xlink:href="#m5ebc224d24" x="61.997188" y="59.602762" style="fill: #64748b; stroke: #64748b; stroke-width: 0.8"/>
      </g>
     </g>
     <g id="text_8">
      <!-- 100 -->
      <g style="fill: #64748b" transform="translate(34.000938 63.781472) scale(0.11 -0.11)">
       <use xlink:href="#DejaVuSans-14"/>
       <use xlink:href="#DejaVuSans-13" transform="translate(63.625 0)"/>
       <use xlink:href="#DejaVuSans-13" transform="translate(127.25 0)"/>
      </g>
     </g>
    </g>
    <g id="text_9">
     <!-- Recall@1 (%) — higher is better -->
     <g style="fill: #64748b" transform="translate(27.118125 283.788242) rotate(-90) scale(0.12 -0.12)">
      <defs>
       <path id="DejaVuSans-35" d="M 2841 2188 
Q 3044 2119 3236 1894 
Q 3428 1669 3622 1275 
L 4263 0 
L 3584 0 
L 2988 1197 
Q 2756 1666 2539 1819 
Q 2322 1972 1947 1972 
L 1259 1972 
L 1259 0 
L 628 0 
L 628 4666 
L 2053 4666 
Q 2853 4666 3247 4331 
Q 3641 3997 3641 3322 
Q 3641 2881 3436 2590 
Q 3231 2300 2841 2188 
z
M 1259 4147 
L 1259 2491 
L 2053 2491 
Q 2509 2491 2742 2702 
Q 2975 2913 2975 3322 
Q 2975 3731 2742 3939 
Q 2509 4147 2053 4147 
L 1259 4147 
z
" transform="scale(0.015625)"/>
       <path id="DejaVuSans-23" d="M 2381 1678 
Q 2381 1231 2603 976 
Q 2825 722 3213 722 
Q 3597 722 3817 978 
Q 4038 1234 4038 1678 
Q 4038 2116 3813 2373 
Q 3588 2631 3206 2631 
Q 2828 2631 2604 2375 
Q 2381 2119 2381 1678 
z
M 4084 744 
Q 3897 503 3655 389 
Q 3413 275 3091 275 
Q 2553 275 2217 664 
Q 1881 1053 1881 1678 
Q 1881 2303 2218 2693 
Q 2556 3084 3091 3084 
Q 3413 3084 3656 2967 
Q 3900 2850 4084 2613 
L 4084 3022 
L 4531 3022 
L 4531 722 
Q 4988 791 5245 1139 
Q 5503 1488 5503 2041 
Q 5503 2375 5404 2669 
Q 5306 2963 5106 3213 
Q 4781 3622 4314 3839 
Q 3847 4056 3297 4056 
Q 2913 4056 2559 3954 
Q 2206 3853 1906 3653 
Q 1416 3334 1139 2817 
Q 863 2300 863 1697 
Q 863 1200 1042 765 
Q 1222 331 1563 0 
Q 1891 -325 2322 -495 
Q 2753 -666 3244 -666 
Q 3647 -666 4036 -530 
Q 4425 -394 4750 -141 
L 5031 -488 
Q 4641 -791 4180 -952 
Q 3719 -1113 3244 -1113 
Q 2666 -1113 2153 -908 
Q 1641 -703 1241 -313 
Q 841 78 631 592 
Q 422 1106 422 1697 
Q 422 2266 634 2781 
Q 847 3297 1241 3688 
Q 1644 4084 2172 4295 
Q 2700 4506 3291 4506 
Q 3953 4506 4520 4234 
Q 5088 3963 5472 3463 
Q 5706 3156 5829 2797 
Q 5953 2438 5953 2053 
Q 5953 1231 5456 756 
Q 4959 281 4084 263 
L 4084 744 
z
" transform="scale(0.015625)"/>
       <path id="DejaVuSans-8" d="M 4653 2053 
Q 4381 2053 4226 1822 
Q 4072 1591 4072 1178 
Q 4072 772 4226 539 
Q 4381 306 4653 306 
Q 4919 306 5073 539 
Q 5228 772 5228 1178 
Q 5228 1588 5073 1820 
Q 4919 2053 4653 2053 
z
M 4653 2450 
Q 5147 2450 5437 2106 
Q 5728 1763 5728 1178 
Q 5728 594 5436 251 
Q 5144 -91 4653 -91 
Q 4153 -91 3862 251 
Q 3572 594 3572 1178 
Q 3572 1766 3864 2108 
Q 4156 2450 4653 2450 
z
M 1428 4353 
Q 1159 4353 1004 4120 
Q 850 3888 850 3481 
Q 850 3069 1003 2837 
Q 1156 2606 1428 2606 
Q 1700 2606 1854 2837 
Q 2009 3069 2009 3481 
Q 2009 3884 1853 4118 
Q 1697 4353 1428 4353 
z
M 4250 4750 
L 4750 4750 
L 1831 -91 
L 1331 -91 
L 4250 4750 
z
M 1428 4750 
Q 1922 4750 2215 4408 
Q 2509 4066 2509 3481 
Q 2509 2891 2217 2550 
Q 1925 2209 1428 2209 
Q 931 2209 642 2551 
Q 353 2894 353 3481 
Q 353 4063 643 4406 
Q 934 4750 1428 4750 
z
" transform="scale(0.015625)"/>
       <path id="DejaVuSans-4b" d="M 3513 2113 
L 3513 0 
L 2938 0 
L 2938 2094 
Q 2938 2591 2744 2837 
Q 2550 3084 2163 3084 
Q 1697 3084 1428 2787 
Q 1159 2491 1159 1978 
L 1159 0 
L 581 0 
L 581 4863 
L 1159 4863 
L 1159 2956 
Q 1366 3272 1645 3428 
Q 1925 3584 2291 3584 
Q 2894 3584 3203 3211 
Q 3513 2838 3513 2113 
z
" transform="scale(0.015625)"/>
      </defs>
      <use xlink:href="#DejaVuSans-35"/>
      <use xlink:href="#DejaVuSans-48" transform="translate(65 0)"/>
      <use xlink:href="#DejaVuSans-46" transform="translate(126.53125 0)"/>
      <use xlink:href="#DejaVuSans-44" transform="translate(181.515625 0)"/>
      <use xlink:href="#DejaVuSans-4f" transform="translate(242.796875 0)"/>
      <use xlink:href="#DejaVuSans-4f" transform="translate(270.578125 0)"/>
      <use xlink:href="#DejaVuSans-23" transform="translate(298.359375 0)"/>
      <use xlink:href="#DejaVuSans-14" transform="translate(398.359375 0)"/>
      <use xlink:href="#DejaVuSans-3" transform="translate(461.984375 0)"/>
      <use xlink:href="#DejaVuSans-b" transform="translate(493.765625 0)"/>
      <use xlink:href="#DejaVuSans-8" transform="translate(532.78125 0)"/>
      <use xlink:href="#DejaVuSans-c" transform="translate(627.796875 0)"/>
      <use xlink:href="#DejaVuSans-3" transform="translate(666.8125 0)"/>
      <use xlink:href="#DejaVuSans-af6" transform="translate(698.59375 0)"/>
      <use xlink:href="#DejaVuSans-3" transform="translate(798.59375 0)"/>
      <use xlink:href="#DejaVuSans-4b" transform="translate(830.375 0)"/>
      <use xlink:href="#DejaVuSans-4c" transform="translate(893.75 0)"/>
      <use xlink:href="#DejaVuSans-4a" transform="translate(921.53125 0)"/>
      <use xlink:href="#DejaVuSans-4b" transform="translate(985.015625 0)"/>
      <use xlink:href="#DejaVuSans-48" transform="translate(1048.390625 0)"/>
      <use xlink:href="#DejaVuSans-55" transform="translate(1109.921875 0)"/>
      <use xlink:href="#DejaVuSans-3" transform="translate(1151.03125 0)"/>
      <use xlink:href="#DejaVuSans-4c" transform="translate(1182.8125 0)"/>
      <use xlink:href="#DejaVuSans-56" transform="translate(1210.59375 0)"/>
      <use xlink:href="#DejaVuSans-3" transform="translate(1262.6875 0)"/>
      <use xlink:href="#DejaVuSans-45" transform="translate(1294.46875 0)"/>
      <use xlink:href="#DejaVuSans-48" transform="translate(1357.953125 0)"/>
      <use xlink:href="#DejaVuSans-57" transform="translate(1419.484375 0)"/>
      <use xlink:href="#DejaVuSans-57" transform="translate(1458.6875 0)"/>
      <use xlink:href="#DejaVuSans-48" transform="translate(1497.890625 0)"/>
      <use xlink:href="#DejaVuSans-55" transform="translate(1559.421875 0)"/>
     </g>
    </g>
   </g>
   <g id="PathCollection_1">
    <defs>
     <path id="md1251651d6" d="M 0 4.873397 
C 1.29244 4.873397 2.532119 4.359905 3.446012 3.446012 
C 4.359905 2.532119 4.873397 1.29244 4.873397 0 
C 4.873397 -1.29244 4.359905 -2.532119 3.446012 -3.446012 
C 2.532119 -4.359905 1.29244 -4.873397 0 -4.873397 
C -1.29244 -4.873397 -2.532119 -4.359905 -3.446012 -3.446012 
C -4.359905 -2.532119 -4.873397 -1.29244 -4.873397 0 
C -4.873397 1.29244 -4.359905 2.532119 -3.446012 3.446012 
C -2.532119 4.359905 -1.29244 4.873397 0 4.873397 
z
" style="stroke: #ffffff; stroke-width: 1.6"/>
    </defs>
    <g clip-path="url(#p062513ac72)">
     <use xlink:href="#md1251651d6" x="516.474637" y="59.602762" style="fill: #cbd5e1; stroke: #ffffff; stroke-width: 1.6"/>
    </g>
   </g>
   <g id="PathCollection_2">
    <g clip-path="url(#p062513ac72)">
     <use xlink:href="#md1251651d6" x="521.530598" y="129.171862" style="fill: #cbd5e1; stroke: #ffffff; stroke-width: 1.6"/>
    </g>
   </g>
   <g id="PathCollection_3">
    <g clip-path="url(#p062513ac72)">
     <use xlink:href="#md1251651d6" x="521.530598" y="94.997567" style="fill: #cbd5e1; stroke: #ffffff; stroke-width: 1.6"/>
    </g>
   </g>
   <g id="PathCollection_4">
    <g clip-path="url(#p062513ac72)">
     <use xlink:href="#md1251651d6" x="521.530598" y="69.366846" style="fill: #cbd5e1; stroke: #ffffff; stroke-width: 1.6"/>
    </g>
   </g>
   <g id="PathCollection_5">
    <g clip-path="url(#p062513ac72)">
     <use xlink:href="#md1251651d6" x="558.474502" y="99.879609" style="fill: #cbd5e1; stroke: #ffffff; stroke-width: 1.6"/>
    </g>
   </g>
   <g id="PathCollection_6">
    <g clip-path="url(#p062513ac72)">
     <use xlink:href="#md1251651d6" x="558.474502" y="76.689909" style="fill: #cbd5e1; stroke: #ffffff; stroke-width: 1.6"/>
    </g>
   </g>
   <g id="PathCollection_7">
    <g clip-path="url(#p062513ac72)">
     <use xlink:href="#md1251651d6" x="558.474502" y="64.484804" style="fill: #cbd5e1; stroke: #ffffff; stroke-width: 1.6"/>
    </g>
   </g>
   <g id="PathCollection_8">
    <g clip-path="url(#p062513ac72)">
     <use xlink:href="#md1251651d6" x="543.653197" y="80.351441" style="fill: #cbd5e1; stroke: #ffffff; stroke-width: 1.6"/>
    </g>
   </g>
   <g id="PathCollection_9">
    <g clip-path="url(#p062513ac72)">
     <use xlink:href="#md1251651d6" x="229.316271" y="116.966756" style="fill: #cbd5e1; stroke: #ffffff; stroke-width: 1.6"/>
    </g>
   </g>
   <g id="patch_3">
    <path d="M 61.997188 328.115078 
L 61.997188 47.397656 
" style="fill: none; stroke: #cbd5e1; stroke-linejoin: miter; stroke-linecap: square"/>
   </g>
   <g id="patch_4">
    <path d="M 61.997188 328.115078 
L 582.116278 328.115078 
" style="fill: none; stroke: #cbd5e1; stroke-linejoin: miter; stroke-linecap: square"/>
   </g>
   <g id="text_10">
    <!-- FAISS-Flat -->
    <g style="fill: #64748b" transform="translate(452.491434 47.602762) scale(0.105 -0.105)">
     <defs>
      <path id="DejaVuSans-29" d="M 628 4666 
L 3309 4666 
L 3309 4134 
L 1259 4134 
L 1259 2759 
L 3109 2759 
L 3109 2228 
L 1259 2228 
L 1259 0 
L 628 0 
L 628 4666 
z
" transform="scale(0.015625)"/>
      <path id="DejaVuSans-24" d="M 2188 4044 
L 1331 1722 
L 3047 1722 
L 2188 4044 
z
M 1831 4666 
L 2547 4666 
L 4325 0 
L 3669 0 
L 3244 1197 
L 1141 1197 
L 716 0 
L 50 0 
L 1831 4666 
z
" transform="scale(0.015625)"/>
      <path id="DejaVuSans-2c" d="M 628 4666 
L 1259 4666 
L 1259 0 
L 628 0 
L 628 4666 
z
" transform="scale(0.015625)"/>
      <path id="DejaVuSans-36" d="M 3425 4513 
L 3425 3897 
Q 3066 4069 2747 4153 
Q 2428 4238 2131 4238 
Q 1616 4238 1336 4038 
Q 1056 3838 1056 3469 
Q 1056 3159 1242 3001 
Q 1428 2844 1947 2747 
L 2328 2669 
Q 3034 2534 3370 2195 
Q 3706 1856 3706 1288 
Q 3706 609 3251 259 
Q 2797 -91 1919 -91 
Q 1588 -91 1214 -16 
Q 841 59 441 206 
L 441 856 
Q 825 641 1194 531 
Q 1563 422 1919 422 
Q 2459 422 2753 634 
Q 3047 847 3047 1241 
Q 3047 1584 2836 1778 
Q 2625 1972 2144 2069 
L 1759 2144 
Q 1053 2284 737 2584 
Q 422 2884 422 3419 
Q 422 4038 858 4394 
Q 1294 4750 2059 4750 
Q 2388 4750 2728 4690 
Q 3069 4631 3425 4513 
z
" transform="scale(0.015625)"/>
      <path id="DejaVuSans-10" d="M 313 2009 
L 1997 2009 
L 1997 1497 
L 313 1497 
L 313 2009 
z
" transform="scale(0.015625)"/>
     </defs>
     <use xlink:href="#DejaVuSans-29"/>
     <use xlink:href="#DejaVuSans-24" transform="translate(48.34375 0)"/>
     <use xlink:href="#DejaVuSans-2c" transform="translate(116.75 0)"/>
     <use xlink:href="#DejaVuSans-36" transform="translate(146.25 0)"/>
     <use xlink:href="#DejaVuSans-36" transform="translate(209.734375 0)"/>
     <use xlink:href="#DejaVuSans-10" transform="translate(273.21875 0)"/>
     <use xlink:href="#DejaVuSans-29" transform="translate(309.296875 0)"/>
     <use xlink:href="#DejaVuSans-4f" transform="translate(366.8125 0)"/>
     <use xlink:href="#DejaVuSans-44" transform="translate(394.59375 0)"/>
     <use xlink:href="#DejaVuSans-57" transform="translate(455.875 0)"/>
    </g>
   </g>
   <g id="text_11">
    <!-- HNSW -->
    <g style="fill: #64748b" transform="translate(566.474502 54.484804) scale(0.105 -0.105)">
     <defs>
      <path id="DejaVuSans-2b" d="M 628 4666 
L 1259 4666 
L 1259 2753 
L 3553 2753 
L 3553 4666 
L 4184 4666 
L 4184 0 
L 3553 0 
L 3553 2222 
L 1259 2222 
L 1259 0 
L 628 0 
L 628 4666 
z
" transform="scale(0.015625)"/>
      <path id="DejaVuSans-31" d="M 628 4666 
L 1478 4666 
L 3547 763 
L 3547 4666 
L 4159 4666 
L 4159 0 
L 3309 0 
L 1241 3903 
L 1241 0 
L 628 0 
L 628 4666 
z
" transform="scale(0.015625)"/>
      <path id="DejaVuSans-3a" d="M 213 4666 
L 850 4666 
L 1831 722 
L 2809 4666 
L 3519 4666 
L 4500 722 
L 5478 4666 
L 6119 4666 
L 4947 0 
L 4153 0 
L 3169 4050 
L 2175 0 
L 1381 0 
L 213 4666 
z
" transform="scale(0.015625)"/>
     </defs>
     <use xlink:href="#DejaVuSans-2b"/>
     <use xlink:href="#DejaVuSans-31" transform="translate(75.203125 0)"/>
     <use xlink:href="#DejaVuSans-36" transform="translate(150.015625 0)"/>
     <use xlink:href="#DejaVuSans-3a" transform="translate(213.5 0)"/>
    </g>
   </g>
   <g id="text_12">
    <!-- USearch -->
    <g style="fill: #64748b" transform="translate(553.653197 98.351441) scale(0.105 -0.105)">
     <defs>
      <path id="DejaVuSans-38" d="M 556 4666 
L 1191 4666 
L 1191 1831 
Q 1191 1081 1462 751 
Q 1734 422 2344 422 
Q 2950 422 3222 751 
Q 3494 1081 3494 1831 
L 3494 4666 
L 4128 4666 
L 4128 1753 
Q 4128 841 3676 375 
Q 3225 -91 2344 -91 
Q 1459 -91 1007 375 
Q 556 841 556 1753 
L 556 4666 
z
" transform="scale(0.015625)"/>
     </defs>
     <use xlink:href="#DejaVuSans-38"/>
     <use xlink:href="#DejaVuSans-36" transform="translate(73.1875 0)"/>
     <use xlink:href="#DejaVuSans-48" transform="translate(136.671875 0)"/>
     <use xlink:href="#DejaVuSans-44" transform="translate(198.203125 0)"/>
     <use xlink:href="#DejaVuSans-55" transform="translate(259.484375 0)"/>
     <use xlink:href="#DejaVuSans-46" transform="translate(298.390625 0)"/>
     <use xlink:href="#DejaVuSans-4b" transform="translate(353.375 0)"/>
    </g>
   </g>
   <g id="text_13">
    <!-- ScaNN -->
    <g style="fill: #64748b" transform="translate(239.316271 108.966756) scale(0.105 -0.105)">
     <use xlink:href="#DejaVuSans-36"/>
     <use xlink:href="#DejaVuSans-46" transform="translate(63.484375 0)"/>
     <use xlink:href="#DejaVuSans-44" transform="translate(118.46875 0)"/>
     <use xlink:href="#DejaVuSans-31" transform="translate(179.75 0)"/>
     <use xlink:href="#DejaVuSans-31" transform="translate(254.5625 0)"/>
    </g>
   </g>
   <g id="text_14">
    <!-- FaceFlash -->
    <g style="fill: #047857" transform="translate(95.638964 55.705314) scale(0.105 -0.105)">
     <defs>
      <path id="DejaVuSans-Bold-29" d="M 588 4666 
L 3834 4666 
L 3834 3756 
L 1791 3756 
L 1791 2888 
L 3713 2888 
L 3713 1978 
L 1791 1978 
L 1791 0 
L 588 0 
L 588 4666 
z
" transform="scale(0.015625)"/>
      <path id="DejaVuSans-Bold-44" d="M 2106 1575 
Q 1756 1575 1579 1456 
Q 1403 1338 1403 1106 
Q 1403 894 1545 773 
Q 1688 653 1941 653 
Q 2256 653 2472 879 
Q 2688 1106 2688 1447 
L 2688 1575 
L 2106 1575 
z
M 3816 1997 
L 3816 0 
L 2688 0 
L 2688 519 
Q 2463 200 2181 54 
Q 1900 -91 1497 -91 
Q 953 -91 614 226 
Q 275 544 275 1050 
Q 275 1666 698 1953 
Q 1122 2241 2028 2241 
L 2688 2241 
L 2688 2328 
Q 2688 2594 2478 2717 
Q 2269 2841 1825 2841 
Q 1466 2841 1156 2769 
Q 847 2697 581 2553 
L 581 3406 
Q 941 3494 1303 3539 
Q 1666 3584 2028 3584 
Q 2975 3584 3395 3211 
Q 3816 2838 3816 1997 
z
" transform="scale(0.015625)"/>
      <path id="DejaVuSans-Bold-46" d="M 3366 3391 
L 3366 2478 
Q 3138 2634 2908 2709 
Q 2678 2784 2431 2784 
Q 1963 2784 1702 2511 
Q 1441 2238 1441 1747 
Q 1441 1256 1702 982 
Q 1963 709 2431 709 
Q 2694 709 2930 787 
Q 3166 866 3366 1019 
L 3366 103 
Q 3103 6 2833 -42 
Q 2563 -91 2291 -91 
Q 1344 -91 809 395 
Q 275 881 275 1747 
Q 275 2613 809 3098 
Q 1344 3584 2291 3584 
Q 2566 3584 2833 3536 
Q 3100 3488 3366 3391 
z
" transform="scale(0.015625)"/>
      <path id="DejaVuSans-Bold-48" d="M 4031 1759 
L 4031 1441 
L 1416 1441 
Q 1456 1047 1700 850 
Q 1944 653 2381 653 
Q 2734 653 3104 758 
Q 3475 863 3866 1075 
L 3866 213 
Q 3469 63 3072 -14 
Q 2675 -91 2278 -91 
Q 1328 -91 801 392 
Q 275 875 275 1747 
Q 275 2603 792 3093 
Q 1309 3584 2216 3584 
Q 3041 3584 3536 3087 
Q 4031 2591 4031 1759 
z
M 2881 2131 
Q 2881 2450 2695 2645 
Q 2509 2841 2209 2841 
Q 1884 2841 1681 2658 
Q 1478 2475 1428 2131 
L 2881 2131 
z
" transform="scale(0.015625)"/>
      <path id="DejaVuSans-Bold-4f" d="M 538 4863 
L 1656 4863 
L 1656 0 
L 538 0 
L 538 4863 
z
" transform="scale(0.015625)"/>
      <path id="DejaVuSans-Bold-56" d="M 3272 3391 
L 3272 2541 
Q 2913 2691 2578 2766 
Q 2244 2841 1947 2841 
Q 1628 2841 1473 2761 
Q 1319 2681 1319 2516 
Q 1319 2381 1436 2309 
Q 1553 2238 1856 2203 
L 2053 2175 
Q 2913 2066 3209 1816 
Q 3506 1566 3506 1031 
Q 3506 472 3093 190 
Q 2681 -91 1863 -91 
Q 1516 -91 1145 -36 
Q 775 19 384 128 
L 384 978 
Q 719 816 1070 734 
Q 1422 653 1784 653 
Q 2113 653 2278 743 
Q 2444 834 2444 1013 
Q 2444 1163 2330 1236 
Q 2216 1309 1875 1350 
L 1678 1375 
Q 931 1469 631 1722 
Q 331 1975 331 2491 
Q 331 3047 712 3315 
Q 1094 3584 1881 3584 
Q 2191 3584 2531 3537 
Q 2872 3491 3272 3391 
z
" transform="scale(0.015625)"/>
      <path id="DejaVuSans-Bold-4b" d="M 4056 2131 
L 4056 0 
L 2931 0 
L 2931 347 
L 2931 1625 
Q 2931 2084 2911 2256 
Q 2891 2428 2841 2509 
Q 2775 2619 2662 2680 
Q 2550 2741 2406 2741 
Q 2056 2741 1856 2470 
Q 1656 2200 1656 1722 
L 1656 0 
L 538 0 
L 538 4863 
L 1656 4863 
L 1656 2988 
Q 1909 3294 2193 3439 
Q 2478 3584 2822 3584 
Q 3428 3584 3742 3212 
Q 4056 2841 4056 2131 
z
" transform="scale(0.015625)"/>
     </defs>
     <use xlink:href="#DejaVuSans-Bold-29"/>
     <use xlink:href="#DejaVuSans-Bold-44" transform="translate(62.453125 0)"/>
     <use xlink:href="#DejaVuSans-Bold-46" transform="translate(129.9375 0)"/>
     <use xlink:href="#DejaVuSans-Bold-48" transform="translate(189.21875 0)"/>
     <use xlink:href="#DejaVuSans-Bold-29" transform="translate(257.046875 0)"/>
     <use xlink:href="#DejaVuSans-Bold-4f" transform="translate(325.359375 0)"/>
     <use xlink:href="#DejaVuSans-Bold-44" transform="translate(359.640625 0)"/>
     <use xlink:href="#DejaVuSans-Bold-56" transform="translate(427.125 0)"/>
     <use xlink:href="#DejaVuSans-Bold-4b" transform="translate(486.640625 0)"/>
    </g>
   </g>
   <g id="text_15">
    <!-- High recall at tiny memory · MS1MV2, 100K faces -->
    <g style="fill: #64748b" transform="translate(61.997188 40.544317) scale(0.11 -0.11)">
     <defs>
      <path id="DejaVuSans-51" d="M 3513 2113 
L 3513 0 
L 2938 0 
L 2938 2094 
Q 2938 2591 2744 2837 
Q 2550 3084 2163 3084 
Q 1697 3084 1428 2787 
Q 1159 2491 1159 1978 
L 1159 0 
L 581 0 
L 581 3500 
L 1159 3500 
L 1159 2956 
Q 1366 3272 1645 3428 
Q 1925 3584 2291 3584 
Q 2894 3584 3203 3211 
Q 3513 2838 3513 2113 
z
" transform="scale(0.015625)"/>
      <path id="DejaVuSans-79" d="M 684 2619 
L 1344 2619 
L 1344 1825 
L 684 1825 
L 684 2619 
z
" transform="scale(0.015625)"/>
      <path id="DejaVuSans-39" d="M 1831 0 
L 50 4666 
L 709 4666 
L 2188 738 
L 3669 4666 
L 4325 4666 
L 2547 0 
L 1831 0 
z
" transform="scale(0.015625)"/>
      <path id="DejaVuSans-2e" d="M 628 4666 
L 1259 4666 
L 1259 2694 
L 3353 4666 
L 4166 4666 
L 1850 2491 
L 4331 0 
L 3500 0 
L 1259 2247 
L 1259 0 
L 628 0 
L 628 4666 
z
" transform="scale(0.015625)"/>
     </defs>
     <use xlink:href="#DejaVuSans-2b"/>
     <use xlink:href="#DejaVuSans-4c" transform="translate(75.203125 0)"/>
     <use xlink:href="#DejaVuSans-4a" transform="translate(102.984375 0)"/>
     <use xlink:href="#DejaVuSans-4b" transform="translate(166.46875 0)"/>
     <use xlink:href="#DejaVuSans-3" transform="translate(229.84375 0)"/>
     <use xlink:href="#DejaVuSans-55" transform="translate(261.625 0)"/>
     <use xlink:href="#DejaVuSans-48" transform="translate(300.53125 0)"/>
     <use xlink:href="#DejaVuSans-46" transform="translate(362.0625 0)"/>
     <use xlink:href="#DejaVuSans-44" transform="translate(417.046875 0)"/>
     <use xlink:href="#DejaVuSans-4f" transform="translate(478.328125 0)"/>
     <use xlink:href="#DejaVuSans-4f" transform="translate(506.109375 0)"/>
     <use xlink:href="#DejaVuSans-3" transform="translate(533.890625 0)"/>
     <use xlink:href="#DejaVuSans-44" transform="translate(565.671875 0)"/>
     <use xlink:href="#DejaVuSans-57" transform="translate(626.953125 0)"/>
     <use xlink:href="#DejaVuSans-3" transform="translate(666.15625 0)"/>
     <use xlink:href="#DejaVuSans-57" transform="translate(697.9375 0)"/>
     <use xlink:href="#DejaVuSans-4c" transform="translate(737.140625 0)"/>
     <use xlink:href="#DejaVuSans-51" transform="translate(764.921875 0)"/>
     <use xlink:href="#DejaVuSans-5c" transform="translate(828.296875 0)"/>
     <use xlink:href="#DejaVuSans-3" transform="translate(887.484375 0)"/>
     <use xlink:href="#DejaVuSans-50" transform="translate(919.265625 0)"/>
     <use xlink:href="#DejaVuSans-48" transform="translate(1016.671875 0)"/>
     <use xlink:href="#DejaVuSans-50" transform="translate(1078.203125 0)"/>
     <use xlink:href="#DejaVuSans-52" transform="translate(1175.609375 0)"/>
     <use xlink:href="#DejaVuSans-55" transform="translate(1236.796875 0)"/>
     <use xlink:href="#DejaVuSans-5c" transform="translate(1277.90625 0)"/>
     <use xlink:href="#DejaVuSans-3" transform="translate(1337.09375 0)"/>
     <use xlink:href="#DejaVuSans-79" transform="translate(1368.875 0)"/>
     <use xlink:href="#DejaVuSans-3" transform="translate(1400.65625 0)"/>
     <use xlink:href="#DejaVuSans-30" transform="translate(1432.4375 0)"/>
     <use xlink:href="#DejaVuSans-36" transform="translate(1518.71875 0)"/>
     <use xlink:href="#DejaVuSans-14" transform="translate(1582.203125 0)"/>
     <use xlink:href="#DejaVuSans-30" transform="translate(1645.828125 0)"/>
     <use xlink:href="#DejaVuSans-39" transform="translate(1732.109375 0)"/>
     <use xlink:href="#DejaVuSans-15" transform="translate(1800.515625 0)"/>
     <use xlink:href="#DejaVuSans-f" transform="translate(1864.140625 0)"/>
     <use xlink:href="#DejaVuSans-3" transform="translate(1895.921875 0)"/>
     <use xlink:href="#DejaVuSans-14" transform="translate(1927.703125 0)"/>
     <use xlink:href="#DejaVuSans-13" transform="translate(1991.328125 0)"/>
     <use xlink:href="#DejaVuSans-13" transform="translate(2054.953125 0)"/>
     <use xlink:href="#DejaVuSans-2e" transform="translate(2118.578125 0)"/>
     <use xlink:href="#DejaVuSans-3" transform="translate(2184.15625 0)"/>
     <use xlink:href="#DejaVuSans-49" transform="translate(2215.9375 0)"/>
     <use xlink:href="#DejaVuSans-44" transform="translate(2251.140625 0)"/>
     <use xlink:href="#DejaVuSans-46" transform="translate(2312.421875 0)"/>
     <use xlink:href="#DejaVuSans-48" transform="translate(2367.40625 0)"/>
     <use xlink:href="#DejaVuSans-56" transform="translate(2428.9375 0)"/>
    </g>
   </g>
   <g id="text_16">
    <!-- FaceFlash sits alone in the good corner -->
    <g style="fill: #0f172a" transform="translate(61.997188 29.397656) scale(0.15 -0.15)">
     <defs>
      <path id="DejaVuSans-Bold-3" transform="scale(0.015625)"/>
      <path id="DejaVuSans-Bold-4c" d="M 538 3500 
L 1656 3500 
L 1656 0 
L 538 0 
L 538 3500 
z
M 538 4863 
L 1656 4863 
L 1656 3950 
L 538 3950 
L 538 4863 
z
" transform="scale(0.015625)"/>
      <path id="DejaVuSans-Bold-57" d="M 1759 4494 
L 1759 3500 
L 2913 3500 
L 2913 2700 
L 1759 2700 
L 1759 1216 
Q 1759 972 1856 886 
Q 1953 800 2241 800 
L 2816 800 
L 2816 0 
L 1856 0 
Q 1194 0 917 276 
Q 641 553 641 1216 
L 641 2700 
L 84 2700 
L 84 3500 
L 641 3500 
L 641 4494 
L 1759 4494 
z
" transform="scale(0.015625)"/>
      <path id="DejaVuSans-Bold-52" d="M 2203 2784 
Q 1831 2784 1636 2517 
Q 1441 2250 1441 1747 
Q 1441 1244 1636 976 
Q 1831 709 2203 709 
Q 2569 709 2762 976 
Q 2956 1244 2956 1747 
Q 2956 2250 2762 2517 
Q 2569 2784 2203 2784 
z
M 2203 3584 
Q 3106 3584 3614 3096 
Q 4122 2609 4122 1747 
Q 4122 884 3614 396 
Q 3106 -91 2203 -91 
Q 1297 -91 786 396 
Q 275 884 275 1747 
Q 275 2609 786 3096 
Q 1297 3584 2203 3584 
z
" transform="scale(0.015625)"/>
      <path id="DejaVuSans-Bold-51" d="M 4056 2131 
L 4056 0 
L 2931 0 
L 2931 347 
L 2931 1631 
Q 2931 2084 2911 2256 
Q 2891 2428 2841 2509 
Q 2775 2619 2662 2680 
Q 2550 2741 2406 2741 
Q 2056 2741 1856 2470 
Q 1656 2200 1656 1722 
L 1656 0 
L 538 0 
L 538 3500 
L 1656 3500 
L 1656 2988 
Q 1909 3294 2193 3439 
Q 2478 3584 2822 3584 
Q 3428 3584 3742 3212 
Q 4056 2841 4056 2131 
z
" transform="scale(0.015625)"/>
      <path id="DejaVuSans-Bold-4a" d="M 2919 594 
Q 2688 288 2409 144 
Q 2131 0 1766 0 
Q 1125 0 706 504 
Q 288 1009 288 1791 
Q 288 2575 706 3076 
Q 1125 3578 1766 3578 
Q 2131 3578 2409 3434 
Q 2688 3291 2919 2981 
L 2919 3500 
L 4044 3500 
L 4044 353 
Q 4044 -491 3511 -936 
Q 2978 -1381 1966 -1381 
Q 1638 -1381 1331 -1331 
Q 1025 -1281 716 -1178 
L 716 -306 
Q 1009 -475 1290 -558 
Q 1572 -641 1856 -641 
Q 2406 -641 2662 -400 
Q 2919 -159 2919 353 
L 2919 594 
z
M 2181 2772 
Q 1834 2772 1640 2515 
Q 1447 2259 1447 1791 
Q 1447 1309 1634 1061 
Q 1822 813 2181 813 
Q 2531 813 2725 1069 
Q 2919 1325 2919 1791 
Q 2919 2259 2725 2515 
Q 2531 2772 2181 2772 
z
" transform="scale(0.015625)"/>
      <path id="DejaVuSans-Bold-47" d="M 2919 2988 
L 2919 4863 
L 4044 4863 
L 4044 0 
L 2919 0 
L 2919 506 
Q 2688 197 2409 53 
Q 2131 -91 1766 -91 
Q 1119 -91 703 423 
Q 288 938 288 1747 
Q 288 2556 703 3070 
Q 1119 3584 1766 3584 
Q 2128 3584 2408 3439 
Q 2688 3294 2919 2988 
z
M 2181 722 
Q 2541 722 2730 984 
Q 2919 1247 2919 1747 
Q 2919 2247 2730 2509 
Q 2541 2772 2181 2772 
Q 1825 2772 1636 2509 
Q 1447 2247 1447 1747 
Q 1447 1247 1636 984 
Q 1825 722 2181 722 
z
" transform="scale(0.015625)"/>
      <path id="DejaVuSans-Bold-55" d="M 3138 2547 
Q 2991 2616 2845 2648 
Q 2700 2681 2553 2681 
Q 2122 2681 1889 2404 
Q 1656 2128 1656 1613 
L 1656 0 
L 538 0 
L 538 3500 
L 1656 3500 
L 1656 2925 
Q 1872 3269 2151 3426 
Q 2431 3584 2822 3584 
Q 2878 3584 2943 3579 
Q 3009 3575 3134 3559 
L 3138 2547 
z
" transform="scale(0.015625)"/>
     </defs>
     <use xlink:href="#DejaVuSans-Bold-29"/>
     <use xlink:href="#DejaVuSans-Bold-44" transform="translate(62.453125 0)"/>
     <use xlink:href="#DejaVuSans-Bold-46" transform="translate(129.9375 0)"/>
     <use xlink:href="#DejaVuSans-Bold-48" transform="translate(189.21875 0)"/>
     <use xlink:href="#DejaVuSans-Bold-29" transform="translate(257.046875 0)"/>
     <use xlink:href="#DejaVuSans-Bold-4f" transform="translate(325.359375 0)"/>
     <use xlink:href="#DejaVuSans-Bold-44" transform="translate(359.640625 0)"/>
     <use xlink:href="#DejaVuSans-Bold-56" transform="translate(427.125 0)"/>
     <use xlink:href="#DejaVuSans-Bold-4b" transform="translate(486.640625 0)"/>
     <use xlink:href="#DejaVuSans-Bold-3" transform="translate(557.828125 0)"/>
     <use xlink:href="#DejaVuSans-Bold-56" transform="translate(592.640625 0)"/>
     <use xlink:href="#DejaVuSans-Bold-4c" transform="translate(652.15625 0)"/>
     <use xlink:href="#DejaVuSans-Bold-57" transform="translate(686.4375 0)"/>
     <use xlink:href="#DejaVuSans-Bold-56" transform="translate(734.234375 0)"/>
     <use xlink:href="#DejaVuSans-Bold-3" transform="translate(793.75 0)"/>
     <use xlink:href="#DejaVuSans-Bold-44" transform="translate(828.5625 0)"/>
     <use xlink:href="#DejaVuSans-Bold-4f" transform="translate(896.046875 0)"/>
     <use xlink:href="#DejaVuSans-Bold-52" transform="translate(930.328125 0)"/>
     <use xlink:href="#DejaVuSans-Bold-51" transform="translate(999.03125 0)"/>
     <use xlink:href="#DejaVuSans-Bold-48" transform="translate(1070.21875 0)"/>
     <use xlink:href="#DejaVuSans-Bold-3" transform="translate(1138.046875 0)"/>
     <use xlink:href="#DejaVuSans-Bold-4c" transform="translate(1172.859375 0)"/>
     <use xlink:href="#DejaVuSans-Bold-51" transform="translate(1207.140625 0)"/>
     <use xlink:href="#DejaVuSans-Bold-3" transform="translate(1278.328125 0)"/>
     <use xlink:href="#DejaVuSans-Bold-57" transform="translate(1313.140625 0)"/>
     <use xlink:href="#DejaVuSans-Bold-4b" transform="translate(1360.9375 0)"/>
     <use xlink:href="#DejaVuSans-Bold-48" transform="translate(1432.125 0)"/>
     <use xlink:href="#DejaVuSans-Bold-3" transform="translate(1499.953125 0)"/>
     <use xlink:href="#DejaVuSans-Bold-4a" transform="translate(1534.765625 0)"/>
     <use xlink:href="#DejaVuSans-Bold-52" transform="translate(1606.34375 0)"/>
     <use xlink:href="#DejaVuSans-Bold-52" transform="translate(1675.046875 0)"/>
     <use xlink:href="#DejaVuSans-Bold-47" transform="translate(1743.75 0)"/>
     <use xlink:href="#DejaVuSans-Bold-3" transform="translate(1815.328125 0)"/>
     <use xlink:href="#DejaVuSans-Bold-46" transform="translate(1850.140625 0)"/>
     <use xlink:href="#DejaVuSans-Bold-52" transform="translate(1909.421875 0)"/>
     <use xlink:href="#DejaVuSans-Bold-55" transform="translate(1978.125 0)"/>
     <use xlink:href="#DejaVuSans-Bold-51" transform="translate(2027.4375 0)"/>
     <use xlink:href="#DejaVuSans-Bold-48" transform="translate(2098.625 0)"/>
     <use xlink:href="#DejaVuSans-Bold-55" transform="translate(2166.453125 0)"/>
    </g>
   </g>
   <g id="PathCollection_10">
    <defs>
     <path id="m4e2e0ad0fc" d="M 0 7.745967 
C 2.054254 7.745967 4.024648 6.929803 5.477226 5.477226 
C 6.929803 4.024648 7.745967 2.054254 7.745967 0 
C 7.745967 -2.054254 6.929803 -4.024648 5.477226 -5.477226 
C 4.024648 -6.929803 2.054254 -7.745967 0 -7.745967 
C -2.054254 -7.745967 -4.024648 -6.929803 -5.477226 -5.477226 
C -6.929803 -4.024648 -7.745967 -2.054254 -7.745967 0 
C -7.745967 2.054254 -6.929803 4.024648 -5.477226 5.477226 
C -4.024648 6.929803 -2.054254 7.745967 0 7.745967 
z
" style="stroke: #ffffff; stroke-width: 1.6"/>
    </defs>
    <g clip-path="url(#p062513ac72)">
     <use xlink:href="#m4e2e0ad0fc" x="85.638964" y="68.146335" style="fill: #10b981; stroke: #ffffff; stroke-width: 1.6"/>
    </g>
   </g>
   <g id="PathCollection_11">
    <g clip-path="url(#p062513ac72)">
     <use xlink:href="#m4e2e0ad0fc" x="85.638964" y="65.705314" style="fill: #10b981; stroke: #ffffff; stroke-width: 1.6"/>
    </g>
   </g>
   <g id="PathCollection_12">
    <g clip-path="url(#p062513ac72)">
     <use xlink:href="#m4e2e0ad0fc" x="127.750201" y="64.484804" style="fill: #10b981; stroke: #ffffff; stroke-width: 1.6"/>
    </g>
   </g>
   <g id="PathCollection_13">
    <g clip-path="url(#p062513ac72)">
     <use xlink:href="#m4e2e0ad0fc" x="127.750201" y="66.925825" style="fill: #10b981; stroke: #ffffff; stroke-width: 1.6"/>
    </g>
   </g>
   <g id="PathCollection_14">
    <g clip-path="url(#p062513ac72)">
     <use xlink:href="#m4e2e0ad0fc" x="157.435184" y="66.925825" style="fill: #10b981; stroke: #ffffff; stroke-width: 1.6"/>
    </g>
   </g>
   <g id="PathCollection_15">
    <g clip-path="url(#p062513ac72)">
     <use xlink:href="#m4e2e0ad0fc" x="157.435184" y="68.146335" style="fill: #10b981; stroke: #ffffff; stroke-width: 1.6"/>
    </g>
   </g>
   <g id="PathCollection_16">
    <g clip-path="url(#p062513ac72)">
     <use xlink:href="#m4e2e0ad0fc" x="157.435184" y="64.484804" style="fill: #10b981; stroke: #ffffff; stroke-width: 1.6"/>
    </g>
   </g>
   <g id="PathCollection_17">
    <g clip-path="url(#p062513ac72)">
     <use xlink:href="#m4e2e0ad0fc" x="157.435184" y="66.925825" style="fill: #10b981; stroke: #ffffff; stroke-width: 1.6"/>
    </g>
   </g>
   <g id="PathCollection_18">
    <g clip-path="url(#p062513ac72)">
     <use xlink:href="#m4e2e0ad0fc" x="157.435184" y="69.366846" style="fill: #10b981; stroke: #ffffff; stroke-width: 1.6"/>
    </g>
   </g>
  </g>
 </g>
 <defs>
  <clipPath id="p062513ac72">
   <rect x="61.997188" y="47.397656" width="520.119091" height="280.717422"/>
  </clipPath>
 </defs>
</svg>
