<?xml version="1.0" encoding="utf-8" standalone="no"?>
<!DOCTYPE svg PUBLIC "-//W3C//DTD SVG 1.1//EN"
  "http://www.w3.org/Graphics/SVG/1.1/DTD/svg11.dtd">
<svg xmlns:xlink="http://www.w3.org/1999/xlink" width="780.729979pt" height="420.923812pt" viewBox="0 0 780.729979 420.923812" xmlns="http://www.w3.org/2000/svg" version="1.1">
 <metadata>
  <rdf:RDF xmlns:dc="http://purl.org/dc/elements/1.1/" xmlns:cc="http://creativecommons.org/ns#" xmlns:rdf="http://www.w3.org/1999/02/22-rdf-syntax-ns#">
   <cc:Work>
    <dc:type rdf:resource="http://purl.org/dc/dcmitype/StillImage"/>
    <dc:date>2026-06-26T19:34:20.833695</dc:date>
    <dc:format>image/svg+xml</dc:format>
    <dc:creator>
     <cc:Agent>
      <dc:title>Matplotlib v3.9.4, https://matplotlib.org/</dc:title>
     </cc:Agent>
    </dc:creator>
   </cc:Work>
  </rdf:RDF>
 </metadata>
 <defs>
  <style type="text/css">*{stroke-linejoin: round; stroke-linecap: butt}</style>
 </defs>
 <g id="figure_1">
  <g id="patch_1">
   <path d="M 0 420.923812 
L 780.729979 420.923812 
L 780.729979 0 
L 0 0 
z
" style="fill: #ffffff"/>
  </g>
  <g id="axes_1">
   <g id="patch_2">
    <path d="M 49.17375 380.464125 
L 773.529979 380.464125 
L 773.529979 39.624125 
L 49.17375 39.624125 
z
" style="fill: #ffffff"/>
   </g>
   <g id="matplotlib.axis_1">
    <g id="xtick_1">
     <g id="line2d_1">
      <path d="M 82.099033 380.464125 
L 82.099033 39.624125 
" clip-path="url(#p494d07da87)" style="fill: none; stroke: #b0b0b0; stroke-opacity: 0.3; stroke-width: 0.8; stroke-linecap: square"/>
     </g>
     <g id="line2d_2">
      <defs>
       <path id="m7ab2027b59" d="M 0 0 
L 0 3.5 
" style="stroke: #000000; stroke-width: 0.8"/>
      </defs>
      <g>
       <use xlink:href="#m7ab2027b59" x="82.099033" y="380.464125" style="stroke: #000000; stroke-width: 0.8"/>
      </g>
     </g>
     <g id="text_1">
      <!-- 100K -->
      <g transform="translate(67.994111 395.822406) scale(0.11 -0.11)">
       <defs>
        <path id="DejaVuSans-31" d="M 794 531 
L 1825 531 
L 1825 4091 
L 703 3866 
L 703 4441 
L 1819 4666 
L 2450 4666 
L 2450 531 
L 3481 531 
L 3481 0 
L 794 0 
L 794 531 
z
" transform="scale(0.015625)"/>
        <path id="DejaVuSans-30" d="M 2034 4250 
Q 1547 4250 1301 3770 
Q 1056 3291 1056 2328 
Q 1056 1369 1301 889 
Q 1547 409 2034 409 
Q 2525 409 2770 889 
Q 3016 1369 3016 2328 
Q 3016 3291 2770 3770 
Q 2525 4250 2034 4250 
z
M 2034 4750 
Q 2819 4750 3233 4129 
Q 3647 3509 3647 2328 
Q 3647 1150 3233 529 
Q 2819 -91 2034 -91 
Q 1250 -91 836 529 
Q 422 1150 422 2328 
Q 422 3509 836 4129 
Q 1250 4750 2034 4750 
z
" transform="scale(0.015625)"/>
        <path id="DejaVuSans-4b" d="M 628 4666 
L 1259 4666 
L 1259 2694 
L 3353 4666 
L 4166 4666 
L 1850 2491 
L 4331 0 
L 3500 0 
L 1259 2247 
L 1259 0 
L 628 0 
L 628 4666 
z
" transform="scale(0.015625)"/>
       </defs>
       <use xlink:href="#DejaVuSans-31"/>
       <use xlink:href="#DejaVuSans-30" x="63.623047"/>
       <use xlink:href="#DejaVuSans-30" x="127.246094"/>
       <use xlink:href="#DejaVuSans-4b" x="190.869141"/>
      </g>
     </g>
    </g>
    <g id="xtick_2">
     <g id="line2d_3">
      <path d="M 246.725449 380.464125 
L 246.725449 39.624125 
" clip-path="url(#p494d07da87)" style="fill: none; stroke: #b0b0b0; stroke-opacity: 0.3; stroke-width: 0.8; stroke-linecap: square"/>
     </g>
     <g id="line2d_4">
      <g>
       <use xlink:href="#m7ab2027b59" x="246.725449" y="380.464125" style="stroke: #000000; stroke-width: 0.8"/>
      </g>
     </g>
     <g id="text_2">
      <!-- 200K -->
      <g transform="translate(232.620527 395.822406) scale(0.11 -0.11)">
       <defs>
        <path id="DejaVuSans-32" d="M 1228 531 
L 3431 531 
L 3431 0 
L 469 0 
L 469 531 
Q 828 903 1448 1529 
Q 2069 2156 2228 2338 
Q 2531 2678 2651 2914 
Q 2772 3150 2772 3378 
Q 2772 3750 2511 3984 
Q 2250 4219 1831 4219 
Q 1534 4219 1204 4116 
Q 875 4013 500 3803 
L 500 4441 
Q 881 4594 1212 4672 
Q 1544 4750 1819 4750 
Q 2544 4750 2975 4387 
Q 3406 4025 3406 3419 
Q 3406 3131 3298 2873 
Q 3191 2616 2906 2266 
Q 2828 2175 2409 1742 
Q 1991 1309 1228 531 
z
" transform="scale(0.015625)"/>
       </defs>
       <use xlink:href="#DejaVuSans-32"/>
       <use xlink:href="#DejaVuSans-30" x="63.623047"/>
       <use xlink:href="#DejaVuSans-30" x="127.246094"/>
       <use xlink:href="#DejaVuSans-4b" x="190.869141"/>
      </g>
     </g>
    </g>
    <g id="xtick_3">
     <g id="line2d_5">
      <path d="M 411.351864 380.464125 
L 411.351864 39.624125 
" clip-path="url(#p494d07da87)" style="fill: none; stroke: #b0b0b0; stroke-opacity: 0.3; stroke-width: 0.8; stroke-linecap: square"/>
     </g>
     <g id="line2d_6">
      <g>
       <use xlink:href="#m7ab2027b59" x="411.351864" y="380.464125" style="stroke: #000000; stroke-width: 0.8"/>
      </g>
     </g>
     <g id="text_3">
      <!-- 300K -->
      <g transform="translate(397.246943 395.822406) scale(0.11 -0.11)">
       <defs>
        <path id="DejaVuSans-33" d="M 2597 2516 
Q 3050 2419 3304 2112 
Q 3559 1806 3559 1356 
Q 3559 666 3084 287 
Q 2609 -91 1734 -91 
Q 1441 -91 1130 -33 
Q 819 25 488 141 
L 488 750 
Q 750 597 1062 519 
Q 1375 441 1716 441 
Q 2309 441 2620 675 
Q 2931 909 2931 1356 
Q 2931 1769 2642 2001 
Q 2353 2234 1838 2234 
L 1294 2234 
L 1294 2753 
L 1863 2753 
Q 2328 2753 2575 2939 
Q 2822 3125 2822 3475 
Q 2822 3834 2567 4026 
Q 2313 4219 1838 4219 
Q 1578 4219 1281 4162 
Q 984 4106 628 3988 
L 628 4550 
Q 988 4650 1302 4700 
Q 1616 4750 1894 4750 
Q 2613 4750 3031 4423 
Q 3450 4097 3450 3541 
Q 3450 3153 3228 2886 
Q 3006 2619 2597 2516 
z
" transform="scale(0.015625)"/>
       </defs>
       <use xlink:href="#DejaVuSans-33"/>
       <use xlink:href="#DejaVuSans-30" x="63.623047"/>
       <use xlink:href="#DejaVuSans-30" x="127.246094"/>
       <use xlink:href="#DejaVuSans-4b" x="190.869141"/>
      </g>
     </g>
    </g>
    <g id="xtick_4">
     <g id="line2d_7">
      <path d="M 575.97828 380.464125 
L 575.97828 39.624125 
" clip-path="url(#p494d07da87)" style="fill: none; stroke: #b0b0b0; stroke-opacity: 0.3; stroke-width: 0.8; stroke-linecap: square"/>
     </g>
     <g id="line2d_8">
      <g>
       <use xlink:href="#m7ab2027b59" x="575.97828" y="380.464125" style="stroke: #000000; stroke-width: 0.8"/>
      </g>
     </g>
     <g id="text_4">
      <!-- 500K -->
      <g transform="translate(561.873358 395.822406) scale(0.11 -0.11)">
       <defs>
        <path id="DejaVuSans-35" d="M 691 4666 
L 3169 4666 
L 3169 4134 
L 1269 4134 
L 1269 2991 
Q 1406 3038 1543 3061 
Q 1681 3084 1819 3084 
Q 2600 3084 3056 2656 
Q 3513 2228 3513 1497 
Q 3513 744 3044 326 
Q 2575 -91 1722 -91 
Q 1428 -91 1123 -41 
Q 819 9 494 109 
L 494 744 
Q 775 591 1075 516 
Q 1375 441 1709 441 
Q 2250 441 2565 725 
Q 2881 1009 2881 1497 
Q 2881 1984 2565 2268 
Q 2250 2553 1709 2553 
Q 1456 2553 1204 2497 
Q 953 2441 691 2322 
L 691 4666 
z
" transform="scale(0.015625)"/>
       </defs>
       <use xlink:href="#DejaVuSans-35"/>
       <use xlink:href="#DejaVuSans-30" x="63.623047"/>
       <use xlink:href="#DejaVuSans-30" x="127.246094"/>
       <use xlink:href="#DejaVuSans-4b" x="190.869141"/>
      </g>
     </g>
    </g>
    <g id="xtick_5">
     <g id="line2d_9">
      <path d="M 740.604696 380.464125 
L 740.604696 39.624125 
" clip-path="url(#p494d07da87)" style="fill: none; stroke: #b0b0b0; stroke-opacity: 0.3; stroke-width: 0.8; stroke-linecap: square"/>
     </g>
     <g id="line2d_10">
      <g>
       <use xlink:href="#m7ab2027b59" x="740.604696" y="380.464125" style="stroke: #000000; stroke-width: 0.8"/>
      </g>
     </g>
     <g id="text_5">
      <!-- 1M -->
      <g transform="translate(732.359852 395.822406) scale(0.11 -0.11)">
       <defs>
        <path id="DejaVuSans-4d" d="M 628 4666 
L 1569 4666 
L 2759 1491 
L 3956 4666 
L 4897 4666 
L 4897 0 
L 4281 0 
L 4281 4097 
L 3078 897 
L 2444 897 
L 1241 4097 
L 1241 0 
L 628 0 
L 628 4666 
z
" transform="scale(0.015625)"/>
       </defs>
       <use xlink:href="#DejaVuSans-31"/>
       <use xlink:href="#DejaVuSans-4d" x="63.623047"/>
      </g>
     </g>
    </g>
    <g id="text_6">
     <!-- Database Scale -->
     <g transform="translate(364.671864 411.228187) scale(0.12 -0.12)">
      <defs>
       <path id="DejaVuSans-44" d="M 1259 4147 
L 1259 519 
L 2022 519 
Q 2988 519 3436 956 
Q 3884 1394 3884 2338 
Q 3884 3275 3436 3711 
Q 2988 4147 2022 4147 
L 1259 4147 
z
M 628 4666 
L 1925 4666 
Q 3281 4666 3915 4102 
Q 4550 3538 4550 2338 
Q 4550 1131 3912 565 
Q 3275 0 1925 0 
L 628 0 
L 628 4666 
z
" transform="scale(0.015625)"/>
       <path id="DejaVuSans-61" d="M 2194 1759 
Q 1497 1759 1228 1600 
Q 959 1441 959 1056 
Q 959 750 1161 570 
Q 1363 391 1709 391 
Q 2188 391 2477 730 
Q 2766 1069 2766 1631 
L 2766 1759 
L 2194 1759 
z
M 3341 1997 
L 3341 0 
L 2766 0 
L 2766 531 
Q 2569 213 2275 61 
Q 1981 -91 1556 -91 
Q 1019 -91 701 211 
Q 384 513 384 1019 
Q 384 1609 779 1909 
Q 1175 2209 1959 2209 
L 2766 2209 
L 2766 2266 
Q 2766 2663 2505 2880 
Q 2244 3097 1772 3097 
Q 1472 3097 1187 3025 
Q 903 2953 641 2809 
L 641 3341 
Q 956 3463 1253 3523 
Q 1550 3584 1831 3584 
Q 2591 3584 2966 3190 
Q 3341 2797 3341 1997 
z
" transform="scale(0.015625)"/>
       <path id="DejaVuSans-74" d="M 1172 4494 
L 1172 3500 
L 2356 3500 
L 2356 3053 
L 1172 3053 
L 1172 1153 
Q 1172 725 1289 603 
Q 1406 481 1766 481 
L 2356 481 
L 2356 0 
L 1766 0 
Q 1100 0 847 248 
Q 594 497 594 1153 
L 594 3053 
L 172 3053 
L 172 3500 
L 594 3500 
L 594 4494 
L 1172 4494 
z
" transform="scale(0.015625)"/>
       <path id="DejaVuSans-62" d="M 3116 1747 
Q 3116 2381 2855 2742 
Q 2594 3103 2138 3103 
Q 1681 3103 1420 2742 
Q 1159 2381 1159 1747 
Q 1159 1113 1420 752 
Q 1681 391 2138 391 
Q 2594 391 2855 752 
Q 3116 1113 3116 1747 
z
M 1159 2969 
Q 1341 3281 1617 3432 
Q 1894 3584 2278 3584 
Q 2916 3584 3314 3078 
Q 3713 2572 3713 1747 
Q 3713 922 3314 415 
Q 2916 -91 2278 -91 
Q 1894 -91 1617 61 
Q 1341 213 1159 525 
L 1159 0 
L 581 0 
L 581 4863 
L 1159 4863 
L 1159 2969 
z
" transform="scale(0.015625)"/>
       <path id="DejaVuSans-73" d="M 2834 3397 
L 2834 2853 
Q 2591 2978 2328 3040 
Q 2066 3103 1784 3103 
Q 1356 3103 1142 2972 
Q 928 2841 928 2578 
Q 928 2378 1081 2264 
Q 1234 2150 1697 2047 
L 1894 2003 
Q 2506 1872 2764 1633 
Q 3022 1394 3022 966 
Q 3022 478 2636 193 
Q 2250 -91 1575 -91 
Q 1294 -91 989 -36 
Q 684 19 347 128 
L 347 722 
Q 666 556 975 473 
Q 1284 391 1588 391 
Q 1994 391 2212 530 
Q 2431 669 2431 922 
Q 2431 1156 2273 1281 
Q 2116 1406 1581 1522 
L 1381 1569 
Q 847 1681 609 1914 
Q 372 2147 372 2553 
Q 372 3047 722 3315 
Q 1072 3584 1716 3584 
Q 2034 3584 2315 3537 
Q 2597 3491 2834 3397 
z
" transform="scale(0.015625)"/>
       <path id="DejaVuSans-65" d="M 3597 1894 
L 3597 1613 
L 953 1613 
Q 991 1019 1311 708 
Q 1631 397 2203 397 
Q 2534 397 2845 478 
Q 3156 559 3463 722 
L 3463 178 
Q 3153 47 2828 -22 
Q 2503 -91 2169 -91 
Q 1331 -91 842 396 
Q 353 884 353 1716 
Q 353 2575 817 3079 
Q 1281 3584 2069 3584 
Q 2775 3584 3186 3129 
Q 3597 2675 3597 1894 
z
M 3022 2063 
Q 3016 2534 2758 2815 
Q 2500 3097 2075 3097 
Q 1594 3097 1305 2825 
Q 1016 2553 972 2059 
L 3022 2063 
z
" transform="scale(0.015625)"/>
       <path id="DejaVuSans-20" transform="scale(0.015625)"/>
       <path id="DejaVuSans-53" d="M 3425 4513 
L 3425 3897 
Q 3066 4069 2747 4153 
Q 2428 4238 2131 4238 
Q 1616 4238 1336 4038 
Q 1056 3838 1056 3469 
Q 1056 3159 1242 3001 
Q 1428 2844 1947 2747 
L 2328 2669 
Q 3034 2534 3370 2195 
Q 3706 1856 3706 1288 
Q 3706 609 3251 259 
Q 2797 -91 1919 -91 
Q 1588 -91 1214 -16 
Q 841 59 441 206 
L 441 856 
Q 825 641 1194 531 
Q 1563 422 1919 422 
Q 2459 422 2753 634 
Q 3047 847 3047 1241 
Q 3047 1584 2836 1778 
Q 2625 1972 2144 2069 
L 1759 2144 
Q 1053 2284 737 2584 
Q 422 2884 422 3419 
Q 422 4038 858 4394 
Q 1294 4750 2059 4750 
Q 2388 4750 2728 4690 
Q 3069 4631 3425 4513 
z
" transform="scale(0.015625)"/>
       <path id="DejaVuSans-63" d="M 3122 3366 
L 3122 2828 
Q 2878 2963 2633 3030 
Q 2388 3097 2138 3097 
Q 1578 3097 1268 2742 
Q 959 2388 959 1747 
Q 959 1106 1268 751 
Q 1578 397 2138 397 
Q 2388 397 2633 464 
Q 2878 531 3122 666 
L 3122 134 
Q 2881 22 2623 -34 
Q 2366 -91 2075 -91 
Q 1284 -91 818 406 
Q 353 903 353 1747 
Q 353 2603 823 3093 
Q 1294 3584 2113 3584 
Q 2378 3584 2631 3529 
Q 2884 3475 3122 3366 
z
" transform="scale(0.015625)"/>
       <path id="DejaVuSans-6c" d="M 603 4863 
L 1178 4863 
L 1178 0 
L 603 0 
L 603 4863 
z
" transform="scale(0.015625)"/>
      </defs>
      <use xlink:href="#DejaVuSans-44"/>
      <use xlink:href="#DejaVuSans-61" x="77.001953"/>
      <use xlink:href="#DejaVuSans-74" x="138.28125"/>
      <use xlink:href="#DejaVuSans-61" x="177.490234"/>
      <use xlink:href="#DejaVuSans-62" x="238.769531"/>
      <use xlink:href="#DejaVuSans-61" x="302.246094"/>
      <use xlink:href="#DejaVuSans-73" x="363.525391"/>
      <use xlink:href="#DejaVuSans-65" x="415.625"/>
      <use xlink:href="#DejaVuSans-20" x="477.148438"/>
      <use xlink:href="#DejaVuSans-53" x="508.935547"/>
      <use xlink:href="#DejaVuSans-63" x="572.412109"/>
      <use xlink:href="#DejaVuSans-61" x="627.392578"/>
      <use xlink:href="#DejaVuSans-6c" x="688.671875"/>
      <use xlink:href="#DejaVuSans-65" x="716.455078"/>
     </g>
    </g>
   </g>
   <g id="matplotlib.axis_2">
    <g id="ytick_1">
     <g id="line2d_11">
      <path d="M 49.17375 289.335386 
L 773.529979 289.335386 
" clip-path="url(#p494d07da87)" style="fill: none; stroke: #b0b0b0; stroke-opacity: 0.3; stroke-width: 0.8; stroke-linecap: square"/>
     </g>
     <g id="line2d_12">
      <defs>
       <path id="m4ca7a0064c" d="M 0 0 
L -3.5 0 
" style="stroke: #000000; stroke-width: 0.8"/>
      </defs>
      <g>
       <use xlink:href="#m4ca7a0064c" x="49.17375" y="289.335386" style="stroke: #000000; stroke-width: 0.8"/>
      </g>
     </g>
     <g id="text_7">
      <!-- $\mathdefault{10^{3}}$ -->
      <g transform="translate(22.81375 293.514527) scale(0.11 -0.11)">
       <use xlink:href="#DejaVuSans-31" transform="translate(0 0.765625)"/>
       <use xlink:href="#DejaVuSans-30" transform="translate(63.623047 0.765625)"/>
       <use xlink:href="#DejaVuSans-33" transform="translate(128.203125 39.046875) scale(0.7)"/>
      </g>
     </g>
    </g>
    <g id="ytick_2">
     <g id="line2d_13">
      <path d="M 49.17375 126.894551 
L 773.529979 126.894551 
" clip-path="url(#p494d07da87)" style="fill: none; stroke: #b0b0b0; stroke-opacity: 0.3; stroke-width: 0.8; stroke-linecap: square"/>
     </g>
     <g id="line2d_14">
      <g>
       <use xlink:href="#m4ca7a0064c" x="49.17375" y="126.894551" style="stroke: #000000; stroke-width: 0.8"/>
      </g>
     </g>
     <g id="text_8">
      <!-- $\mathdefault{10^{4}}$ -->
      <g transform="translate(22.81375 131.073692) scale(0.11 -0.11)">
       <defs>
        <path id="DejaVuSans-34" d="M 2419 4116 
L 825 1625 
L 2419 1625 
L 2419 4116 
z
M 2253 4666 
L 3047 4666 
L 3047 1625 
L 3713 1625 
L 3713 1100 
L 3047 1100 
L 3047 0 
L 2419 0 
L 2419 1100 
L 313 1100 
L 313 1709 
L 2253 4666 
z
" transform="scale(0.015625)"/>
       </defs>
       <use xlink:href="#DejaVuSans-31" transform="translate(0 0.684375)"/>
       <use xlink:href="#DejaVuSans-30" transform="translate(63.623047 0.684375)"/>
       <use xlink:href="#DejaVuSans-34" transform="translate(128.203125 38.965625) scale(0.7)"/>
      </g>
     </g>
    </g>
    <g id="ytick_3">
     <g id="line2d_15">
      <defs>
       <path id="m5400fa43d0" d="M 0 0 
L -2 0 
" style="stroke: #000000; stroke-width: 0.6"/>
      </defs>
      <g>
       <use xlink:href="#m5400fa43d0" x="49.17375" y="374.272246" style="stroke: #000000; stroke-width: 0.6"/>
      </g>
     </g>
    </g>
    <g id="ytick_4">
     <g id="line2d_16">
      <g>
       <use xlink:href="#m5400fa43d0" x="49.17375" y="353.977094" style="stroke: #000000; stroke-width: 0.6"/>
      </g>
     </g>
    </g>
    <g id="ytick_5">
     <g id="line2d_17">
      <g>
       <use xlink:href="#m5400fa43d0" x="49.17375" y="338.23495" style="stroke: #000000; stroke-width: 0.6"/>
      </g>
     </g>
    </g>
    <g id="ytick_6">
     <g id="line2d_18">
      <g>
       <use xlink:href="#m5400fa43d0" x="49.17375" y="325.372683" style="stroke: #000000; stroke-width: 0.6"/>
      </g>
     </g>
    </g>
    <g id="ytick_7">
     <g id="line2d_19">
      <g>
       <use xlink:href="#m5400fa43d0" x="49.17375" y="314.49779" style="stroke: #000000; stroke-width: 0.6"/>
      </g>
     </g>
    </g>
    <g id="ytick_8">
     <g id="line2d_20">
      <g>
       <use xlink:href="#m5400fa43d0" x="49.17375" y="305.07753" style="stroke: #000000; stroke-width: 0.6"/>
      </g>
     </g>
    </g>
    <g id="ytick_9">
     <g id="line2d_21">
      <g>
       <use xlink:href="#m5400fa43d0" x="49.17375" y="296.768271" style="stroke: #000000; stroke-width: 0.6"/>
      </g>
     </g>
    </g>
    <g id="ytick_10">
     <g id="line2d_22">
      <g>
       <use xlink:href="#m5400fa43d0" x="49.17375" y="240.435822" style="stroke: #000000; stroke-width: 0.6"/>
      </g>
     </g>
    </g>
    <g id="ytick_11">
     <g id="line2d_23">
      <g>
       <use xlink:href="#m5400fa43d0" x="49.17375" y="211.831411" style="stroke: #000000; stroke-width: 0.6"/>
      </g>
     </g>
    </g>
    <g id="ytick_12">
     <g id="line2d_24">
      <g>
       <use xlink:href="#m5400fa43d0" x="49.17375" y="191.536258" style="stroke: #000000; stroke-width: 0.6"/>
      </g>
     </g>
    </g>
    <g id="ytick_13">
     <g id="line2d_25">
      <g>
       <use xlink:href="#m5400fa43d0" x="49.17375" y="175.794115" style="stroke: #000000; stroke-width: 0.6"/>
      </g>
     </g>
    </g>
    <g id="ytick_14">
     <g id="line2d_26">
      <g>
       <use xlink:href="#m5400fa43d0" x="49.17375" y="162.931847" style="stroke: #000000; stroke-width: 0.6"/>
      </g>
     </g>
    </g>
    <g id="ytick_15">
     <g id="line2d_27">
      <g>
       <use xlink:href="#m5400fa43d0" x="49.17375" y="152.056955" style="stroke: #000000; stroke-width: 0.6"/>
      </g>
     </g>
    </g>
    <g id="ytick_16">
     <g id="line2d_28">
      <g>
       <use xlink:href="#m5400fa43d0" x="49.17375" y="142.636695" style="stroke: #000000; stroke-width: 0.6"/>
      </g>
     </g>
    </g>
    <g id="ytick_17">
     <g id="line2d_29">
      <g>
       <use xlink:href="#m5400fa43d0" x="49.17375" y="134.327436" style="stroke: #000000; stroke-width: 0.6"/>
      </g>
     </g>
    </g>
    <g id="ytick_18">
     <g id="line2d_30">
      <g>
       <use xlink:href="#m5400fa43d0" x="49.17375" y="77.994987" style="stroke: #000000; stroke-width: 0.6"/>
      </g>
     </g>
    </g>
    <g id="ytick_19">
     <g id="line2d_31">
      <g>
       <use xlink:href="#m5400fa43d0" x="49.17375" y="49.390576" style="stroke: #000000; stroke-width: 0.6"/>
      </g>
     </g>
    </g>
    <g id="text_9">
     <!-- Throughput (queries/sec, log scale) -->
     <g transform="translate(16.318125 316.201) rotate(-90) scale(0.12 -0.12)">
      <defs>
       <path id="DejaVuSans-54" d="M -19 4666 
L 3928 4666 
L 3928 4134 
L 2272 4134 
L 2272 0 
L 1638 0 
L 1638 4134 
L -19 4134 
L -19 4666 
z
" transform="scale(0.015625)"/>
       <path id="DejaVuSans-68" d="M 3513 2113 
L 3513 0 
L 2938 0 
L 2938 2094 
Q 2938 2591 2744 2837 
Q 2550 3084 2163 3084 
Q 1697 3084 1428 2787 
Q 1159 2491 1159 1978 
L 1159 0 
L 581 0 
L 581 4863 
L 1159 4863 
L 1159 2956 
Q 1366 3272 1645 3428 
Q 1925 3584 2291 3584 
Q 2894 3584 3203 3211 
Q 3513 2838 3513 2113 
z
" transform="scale(0.015625)"/>
       <path id="DejaVuSans-72" d="M 2631 2963 
Q 2534 3019 2420 3045 
Q 2306 3072 2169 3072 
Q 1681 3072 1420 2755 
Q 1159 2438 1159 1844 
L 1159 0 
L 581 0 
L 581 3500 
L 1159 3500 
L 1159 2956 
Q 1341 3275 1631 3429 
Q 1922 3584 2338 3584 
Q 2397 3584 2469 3576 
Q 2541 3569 2628 3553 
L 2631 2963 
z
" transform="scale(0.015625)"/>
       <path id="DejaVuSans-6f" d="M 1959 3097 
Q 1497 3097 1228 2736 
Q 959 2375 959 1747 
Q 959 1119 1226 758 
Q 1494 397 1959 397 
Q 2419 397 2687 759 
Q 2956 1122 2956 1747 
Q 2956 2369 2687 2733 
Q 2419 3097 1959 3097 
z
M 1959 3584 
Q 2709 3584 3137 3096 
Q 3566 2609 3566 1747 
Q 3566 888 3137 398 
Q 2709 -91 1959 -91 
Q 1206 -91 779 398 
Q 353 888 353 1747 
Q 353 2609 779 3096 
Q 1206 3584 1959 3584 
z
" transform="scale(0.015625)"/>
       <path id="DejaVuSans-75" d="M 544 1381 
L 544 3500 
L 1119 3500 
L 1119 1403 
Q 1119 906 1312 657 
Q 1506 409 1894 409 
Q 2359 409 2629 706 
Q 2900 1003 2900 1516 
L 2900 3500 
L 3475 3500 
L 3475 0 
L 2900 0 
L 2900 538 
Q 2691 219 2414 64 
Q 2138 -91 1772 -91 
Q 1169 -91 856 284 
Q 544 659 544 1381 
z
M 1991 3584 
L 1991 3584 
z
" transform="scale(0.015625)"/>
       <path id="DejaVuSans-67" d="M 2906 1791 
Q 2906 2416 2648 2759 
Q 2391 3103 1925 3103 
Q 1463 3103 1205 2759 
Q 947 2416 947 1791 
Q 947 1169 1205 825 
Q 1463 481 1925 481 
Q 2391 481 2648 825 
Q 2906 1169 2906 1791 
z
M 3481 434 
Q 3481 -459 3084 -895 
Q 2688 -1331 1869 -1331 
Q 1566 -1331 1297 -1286 
Q 1028 -1241 775 -1147 
L 775 -588 
Q 1028 -725 1275 -790 
Q 1522 -856 1778 -856 
Q 2344 -856 2625 -561 
Q 2906 -266 2906 331 
L 2906 616 
Q 2728 306 2450 153 
Q 2172 0 1784 0 
Q 1141 0 747 490 
Q 353 981 353 1791 
Q 353 2603 747 3093 
Q 1141 3584 1784 3584 
Q 2172 3584 2450 3431 
Q 2728 3278 2906 2969 
L 2906 3500 
L 3481 3500 
L 3481 434 
z
" transform="scale(0.015625)"/>
       <path id="DejaVuSans-70" d="M 1159 525 
L 1159 -1331 
L 581 -1331 
L 581 3500 
L 1159 3500 
L 1159 2969 
Q 1341 3281 1617 3432 
Q 1894 3584 2278 3584 
Q 2916 3584 3314 3078 
Q 3713 2572 3713 1747 
Q 3713 922 3314 415 
Q 2916 -91 2278 -91 
Q 1894 -91 1617 61 
Q 1341 213 1159 525 
z
M 3116 1747 
Q 3116 2381 2855 2742 
Q 2594 3103 2138 3103 
Q 1681 3103 1420 2742 
Q 1159 2381 1159 1747 
Q 1159 1113 1420 752 
Q 1681 391 2138 391 
Q 2594 391 2855 752 
Q 3116 1113 3116 1747 
z
" transform="scale(0.015625)"/>
       <path id="DejaVuSans-28" d="M 1984 4856 
Q 1566 4138 1362 3434 
Q 1159 2731 1159 2009 
Q 1159 1288 1364 580 
Q 1569 -128 1984 -844 
L 1484 -844 
Q 1016 -109 783 600 
Q 550 1309 550 2009 
Q 550 2706 781 3412 
Q 1013 4119 1484 4856 
L 1984 4856 
z
" transform="scale(0.015625)"/>
       <path id="DejaVuSans-71" d="M 947 1747 
Q 947 1113 1208 752 
Q 1469 391 1925 391 
Q 2381 391 2643 752 
Q 2906 1113 2906 1747 
Q 2906 2381 2643 2742 
Q 2381 3103 1925 3103 
Q 1469 3103 1208 2742 
Q 947 2381 947 1747 
z
M 2906 525 
Q 2725 213 2448 61 
Q 2172 -91 1784 -91 
Q 1150 -91 751 415 
Q 353 922 353 1747 
Q 353 2572 751 3078 
Q 1150 3584 1784 3584 
Q 2172 3584 2448 3432 
Q 2725 3281 2906 2969 
L 2906 3500 
L 3481 3500 
L 3481 -1331 
L 2906 -1331 
L 2906 525 
z
" transform="scale(0.015625)"/>
       <path id="DejaVuSans-69" d="M 603 3500 
L 1178 3500 
L 1178 0 
L 603 0 
L 603 3500 
z
M 603 4863 
L 1178 4863 
L 1178 4134 
L 603 4134 
L 603 4863 
z
" transform="scale(0.015625)"/>
       <path id="DejaVuSans-2f" d="M 1625 4666 
L 2156 4666 
L 531 -594 
L 0 -594 
L 1625 4666 
z
" transform="scale(0.015625)"/>
       <path id="DejaVuSans-2c" d="M 750 794 
L 1409 794 
L 1409 256 
L 897 -744 
L 494 -744 
L 750 256 
L 750 794 
z
" transform="scale(0.015625)"/>
       <path id="DejaVuSans-29" d="M 513 4856 
L 1013 4856 
Q 1481 4119 1714 3412 
Q 1947 2706 1947 2009 
Q 1947 1309 1714 600 
Q 1481 -109 1013 -844 
L 513 -844 
Q 928 -128 1133 580 
Q 1338 1288 1338 2009 
Q 1338 2731 1133 3434 
Q 928 4138 513 4856 
z
" transform="scale(0.015625)"/>
      </defs>
      <use xlink:href="#DejaVuSans-54"/>
      <use xlink:href="#DejaVuSans-68" x="61.083984"/>
      <use xlink:href="#DejaVuSans-72" x="124.462891"/>
      <use xlink:href="#DejaVuSans-6f" x="163.326172"/>
      <use xlink:href="#DejaVuSans-75" x="224.507812"/>
      <use xlink:href="#DejaVuSans-67" x="287.886719"/>
      <use xlink:href="#DejaVuSans-68" x="351.363281"/>
      <use xlink:href="#DejaVuSans-70" x="414.742188"/>
      <use xlink:href="#DejaVuSans-75" x="478.21875"/>
      <use xlink:href="#DejaVuSans-74" x="541.597656"/>
      <use xlink:href="#DejaVuSans-20" x="580.806641"/>
      <use xlink:href="#DejaVuSans-28" x="612.59375"/>
      <use xlink:href="#DejaVuSans-71" x="651.607422"/>
      <use xlink:href="#DejaVuSans-75" x="715.083984"/>
      <use xlink:href="#DejaVuSans-65" x="778.462891"/>
      <use xlink:href="#DejaVuSans-72" x="839.986328"/>
      <use xlink:href="#DejaVuSans-69" x="881.099609"/>
      <use xlink:href="#DejaVuSans-65" x="908.882812"/>
      <use xlink:href="#DejaVuSans-73" x="970.40625"/>
      <use xlink:href="#DejaVuSans-2f" x="1022.505859"/>
      <use xlink:href="#DejaVuSans-73" x="1056.197266"/>
      <use xlink:href="#DejaVuSans-65" x="1108.296875"/>
      <use xlink:href="#DejaVuSans-63" x="1169.820312"/>
      <use xlink:href="#DejaVuSans-2c" x="1224.800781"/>
      <use xlink:href="#DejaVuSans-20" x="1256.587891"/>
      <use xlink:href="#DejaVuSans-6c" x="1288.375"/>
      <use xlink:href="#DejaVuSans-6f" x="1316.158203"/>
      <use xlink:href="#DejaVuSans-67" x="1377.339844"/>
      <use xlink:href="#DejaVuSans-20" x="1440.816406"/>
      <use xlink:href="#DejaVuSans-73" x="1472.603516"/>
      <use xlink:href="#DejaVuSans-63" x="1524.703125"/>
      <use xlink:href="#DejaVuSans-61" x="1579.683594"/>
      <use xlink:href="#DejaVuSans-6c" x="1640.962891"/>
      <use xlink:href="#DejaVuSans-65" x="1668.746094"/>
      <use xlink:href="#DejaVuSans-29" x="1730.269531"/>
     </g>
    </g>
   </g>
   <g id="line2d_32">
    <path d="M 82.099033 55.116852 
L 246.725449 78.240896 
L 411.351864 97.599886 
L 575.97828 124.554054 
L 740.604696 170.330777 
" clip-path="url(#p494d07da87)" style="fill: none; stroke: #10b981; stroke-width: 3; stroke-linecap: square"/>
    <defs>
     <path id="ma5d5885b59" d="M -0 5.656854 
L 5.656854 0 
L 0 -5.656854 
L -5.656854 -0 
z
" style="stroke: #10b981; stroke-linejoin: miter"/>
    </defs>
    <g clip-path="url(#p494d07da87)">
     <use xlink:href="#ma5d5885b59" x="82.099033" y="55.116852" style="fill: #10b981; stroke: #10b981; stroke-linejoin: miter"/>
     <use xlink:href="#ma5d5885b59" x="246.725449" y="78.240896" style="fill: #10b981; stroke: #10b981; stroke-linejoin: miter"/>
     <use xlink:href="#ma5d5885b59" x="411.351864" y="97.599886" style="fill: #10b981; stroke: #10b981; stroke-linejoin: miter"/>
     <use xlink:href="#ma5d5885b59" x="575.97828" y="124.554054" style="fill: #10b981; stroke: #10b981; stroke-linejoin: miter"/>
     <use xlink:href="#ma5d5885b59" x="740.604696" y="170.330777" style="fill: #10b981; stroke: #10b981; stroke-linejoin: miter"/>
    </g>
   </g>
   <g id="line2d_33">
    <path d="M 82.099033 165.17045 
L 246.725449 220.688479 
L 411.351864 196.747384 
L 575.97828 168.09197 
L 740.604696 167.532924 
" clip-path="url(#p494d07da87)" style="fill: none; stroke: #a78bfa; stroke-width: 2.5; stroke-linecap: square"/>
    <defs>
     <path id="m912672e2c0" d="M -4 4 
L 4 4 
L 4 -4 
L -4 -4 
z
" style="stroke: #a78bfa; stroke-linejoin: miter"/>
    </defs>
    <g clip-path="url(#p494d07da87)">
     <use xlink:href="#m912672e2c0" x="82.099033" y="165.17045" style="fill: #a78bfa; stroke: #a78bfa; stroke-linejoin: miter"/>
     <use xlink:href="#m912672e2c0" x="246.725449" y="220.688479" style="fill: #a78bfa; stroke: #a78bfa; stroke-linejoin: miter"/>
     <use xlink:href="#m912672e2c0" x="411.351864" y="196.747384" style="fill: #a78bfa; stroke: #a78bfa; stroke-linejoin: miter"/>
     <use xlink:href="#m912672e2c0" x="575.97828" y="168.09197" style="fill: #a78bfa; stroke: #a78bfa; stroke-linejoin: miter"/>
     <use xlink:href="#m912672e2c0" x="740.604696" y="167.532924" style="fill: #a78bfa; stroke: #a78bfa; stroke-linejoin: miter"/>
    </g>
   </g>
   <g id="line2d_34">
    <path d="M 82.099033 229.231499 
L 246.725449 259.640997 
L 411.351864 280.258401 
L 575.97828 319.807172 
L 740.604696 364.971398 
" clip-path="url(#p494d07da87)" style="fill: none; stroke-dasharray: 1.5,2.475; stroke-dashoffset: 0; stroke: #10b981; stroke-opacity: 0.7; stroke-width: 1.5"/>
    <defs>
     <path id="m26e954f5b2" d="M 0 3 
C 0.795609 3 1.55874 2.683901 2.12132 2.12132 
C 2.683901 1.55874 3 0.795609 3 0 
C 3 -0.795609 2.683901 -1.55874 2.12132 -2.12132 
C 1.55874 -2.683901 0.795609 -3 0 -3 
C -0.795609 -3 -1.55874 -2.683901 -2.12132 -2.12132 
C -2.683901 -1.55874 -3 -0.795609 -3 0 
C -3 0.795609 -2.683901 1.55874 -2.12132 2.12132 
C -1.55874 2.683901 -0.795609 3 0 3 
z
" style="stroke: #10b981; stroke-opacity: 0.7"/>
    </defs>
    <g clip-path="url(#p494d07da87)">
     <use xlink:href="#m26e954f5b2" x="82.099033" y="229.231499" style="fill: #10b981; fill-opacity: 0.7; stroke: #10b981; stroke-opacity: 0.7"/>
     <use xlink:href="#m26e954f5b2" x="246.725449" y="259.640997" style="fill: #10b981; fill-opacity: 0.7; stroke: #10b981; stroke-opacity: 0.7"/>
     <use xlink:href="#m26e954f5b2" x="411.351864" y="280.258401" style="fill: #10b981; fill-opacity: 0.7; stroke: #10b981; stroke-opacity: 0.7"/>
     <use xlink:href="#m26e954f5b2" x="575.97828" y="319.807172" style="fill: #10b981; fill-opacity: 0.7; stroke: #10b981; stroke-opacity: 0.7"/>
     <use xlink:href="#m26e954f5b2" x="740.604696" y="364.971398" style="fill: #10b981; fill-opacity: 0.7; stroke: #10b981; stroke-opacity: 0.7"/>
    </g>
   </g>
   <g id="line2d_35">
    <path d="M 82.099033 253.109889 
L 246.725449 259.273427 
L 411.351864 260.242007 
L 575.97828 264.803638 
L 740.604696 259.679066 
" clip-path="url(#p494d07da87)" style="fill: none; stroke-dasharray: 1.5,2.475; stroke-dashoffset: 0; stroke: #6366f1; stroke-opacity: 0.7; stroke-width: 1.5"/>
    <defs>
     <path id="mfcc4e1c59b" d="M -3 3 
L 3 3 
L 3 -3 
L -3 -3 
z
" style="stroke: #6366f1; stroke-opacity: 0.7; stroke-linejoin: miter"/>
    </defs>
    <g clip-path="url(#p494d07da87)">
     <use xlink:href="#mfcc4e1c59b" x="82.099033" y="253.109889" style="fill: #6366f1; fill-opacity: 0.7; stroke: #6366f1; stroke-opacity: 0.7; stroke-linejoin: miter"/>
     <use xlink:href="#mfcc4e1c59b" x="246.725449" y="259.273427" style="fill: #6366f1; fill-opacity: 0.7; stroke: #6366f1; stroke-opacity: 0.7; stroke-linejoin: miter"/>
     <use xlink:href="#mfcc4e1c59b" x="411.351864" y="260.242007" style="fill: #6366f1; fill-opacity: 0.7; stroke: #6366f1; stroke-opacity: 0.7; stroke-linejoin: miter"/>
     <use xlink:href="#mfcc4e1c59b" x="575.97828" y="264.803638" style="fill: #6366f1; fill-opacity: 0.7; stroke: #6366f1; stroke-opacity: 0.7; stroke-linejoin: miter"/>
     <use xlink:href="#mfcc4e1c59b" x="740.604696" y="259.679066" style="fill: #6366f1; fill-opacity: 0.7; stroke: #6366f1; stroke-opacity: 0.7; stroke-linejoin: miter"/>
    </g>
   </g>
   <g id="line2d_36">
    <path d="M 82.099033 165.532009 
L 246.725449 179.399409 
L 411.351864 198.960928 
L 575.97828 209.896156 
L 740.604696 208.970132 
" clip-path="url(#p494d07da87)" style="fill: none; stroke-dasharray: 1.5,2.475; stroke-dashoffset: 0; stroke: #f59e0b; stroke-opacity: 0.7; stroke-width: 1.5"/>
    <defs>
     <path id="m4b763ccbfb" d="M 0 -3 
L -3 3 
L 3 3 
z
" style="stroke: #f59e0b; stroke-opacity: 0.7; stroke-linejoin: miter"/>
    </defs>
    <g clip-path="url(#p494d07da87)">
     <use xlink:href="#m4b763ccbfb" x="82.099033" y="165.532009" style="fill: #f59e0b; fill-opacity: 0.7; stroke: #f59e0b; stroke-opacity: 0.7; stroke-linejoin: miter"/>
     <use xlink:href="#m4b763ccbfb" x="246.725449" y="179.399409" style="fill: #f59e0b; fill-opacity: 0.7; stroke: #f59e0b; stroke-opacity: 0.7; stroke-linejoin: miter"/>
     <use xlink:href="#m4b763ccbfb" x="411.351864" y="198.960928" style="fill: #f59e0b; fill-opacity: 0.7; stroke: #f59e0b; stroke-opacity: 0.7; stroke-linejoin: miter"/>
     <use xlink:href="#m4b763ccbfb" x="575.97828" y="209.896156" style="fill: #f59e0b; fill-opacity: 0.7; stroke: #f59e0b; stroke-opacity: 0.7; stroke-linejoin: miter"/>
     <use xlink:href="#m4b763ccbfb" x="740.604696" y="208.970132" style="fill: #f59e0b; fill-opacity: 0.7; stroke: #f59e0b; stroke-opacity: 0.7; stroke-linejoin: miter"/>
    </g>
   </g>
   <g id="line2d_37">
    <path d="M 82.099033 129.730102 
L 246.725449 171.696396 
L 411.351864 199.26227 
L 575.97828 232.952156 
L 740.604696 278.33672 
" clip-path="url(#p494d07da87)" style="fill: none; stroke-dasharray: 1.5,2.475; stroke-dashoffset: 0; stroke: #ef4444; stroke-opacity: 0.7; stroke-width: 1.5"/>
    <defs>
     <path id="m882fb8666d" d="M -0 3 
L 3 -3 
L -3 -3 
z
" style="stroke: #ef4444; stroke-opacity: 0.7; stroke-linejoin: miter"/>
    </defs>
    <g clip-path="url(#p494d07da87)">
     <use xlink:href="#m882fb8666d" x="82.099033" y="129.730102" style="fill: #ef4444; fill-opacity: 0.7; stroke: #ef4444; stroke-opacity: 0.7; stroke-linejoin: miter"/>
     <use xlink:href="#m882fb8666d" x="246.725449" y="171.696396" style="fill: #ef4444; fill-opacity: 0.7; stroke: #ef4444; stroke-opacity: 0.7; stroke-linejoin: miter"/>
     <use xlink:href="#m882fb8666d" x="411.351864" y="199.26227" style="fill: #ef4444; fill-opacity: 0.7; stroke: #ef4444; stroke-opacity: 0.7; stroke-linejoin: miter"/>
     <use xlink:href="#m882fb8666d" x="575.97828" y="232.952156" style="fill: #ef4444; fill-opacity: 0.7; stroke: #ef4444; stroke-opacity: 0.7; stroke-linejoin: miter"/>
     <use xlink:href="#m882fb8666d" x="740.604696" y="278.33672" style="fill: #ef4444; fill-opacity: 0.7; stroke: #ef4444; stroke-opacity: 0.7; stroke-linejoin: miter"/>
    </g>
   </g>
   <g id="patch_3">
    <path d="M 49.17375 380.464125 
L 49.17375 39.624125 
" style="fill: none; stroke: #000000; stroke-width: 0.8; stroke-linejoin: miter; stroke-linecap: square"/>
   </g>
   <g id="patch_4">
    <path d="M 773.529979 380.464125 
L 773.529979 39.624125 
" style="fill: none; stroke: #000000; stroke-width: 0.8; stroke-linejoin: miter; stroke-linecap: square"/>
   </g>
   <g id="patch_5">
    <path d="M 49.17375 380.464125 
L 773.529979 380.464125 
" style="fill: none; stroke: #000000; stroke-width: 0.8; stroke-linejoin: miter; stroke-linecap: square"/>
   </g>
   <g id="patch_6">
    <path d="M 49.17375 39.624125 
L 773.529979 39.624125 
" style="fill: none; stroke: #000000; stroke-width: 0.8; stroke-linejoin: miter; stroke-linecap: square"/>
   </g>
   <g id="text_10">
    <!-- Throughput: FaceFlash Batched vs All (100K to 1M) -->
    <g transform="translate(208.444833 17.837812) scale(0.14 -0.14)">
     <defs>
      <path id="DejaVuSans-Bold-54" d="M 31 4666 
L 4331 4666 
L 4331 3756 
L 2784 3756 
L 2784 0 
L 1581 0 
L 1581 3756 
L 31 3756 
L 31 4666 
z
" transform="scale(0.015625)"/>
      <path id="DejaVuSans-Bold-68" d="M 4056 2131 
L 4056 0 
L 2931 0 
L 2931 347 
L 2931 1625 
Q 2931 2084 2911 2256 
Q 2891 2428 2841 2509 
Q 2775 2619 2662 2680 
Q 2550 2741 2406 2741 
Q 2056 2741 1856 2470 
Q 1656 2200 1656 1722 
L 1656 0 
L 538 0 
L 538 4863 
L 1656 4863 
L 1656 2988 
Q 1909 3294 2193 3439 
Q 2478 3584 2822 3584 
Q 3428 3584 3742 3212 
Q 4056 2841 4056 2131 
z
" transform="scale(0.015625)"/>
      <path id="DejaVuSans-Bold-72" d="M 3138 2547 
Q 2991 2616 2845 2648 
Q 2700 2681 2553 2681 
Q 2122 2681 1889 2404 
Q 1656 2128 1656 1613 
L 1656 0 
L 538 0 
L 538 3500 
L 1656 3500 
L 1656 2925 
Q 1872 3269 2151 3426 
Q 2431 3584 2822 3584 
Q 2878 3584 2943 3579 
Q 3009 3575 3134 3559 
L 3138 2547 
z
" transform="scale(0.015625)"/>
      <path id="DejaVuSans-Bold-6f" d="M 2203 2784 
Q 1831 2784 1636 2517 
Q 1441 2250 1441 1747 
Q 1441 1244 1636 976 
Q 1831 709 2203 709 
Q 2569 709 2762 976 
Q 2956 1244 2956 1747 
Q 2956 2250 2762 2517 
Q 2569 2784 2203 2784 
z
M 2203 3584 
Q 3106 3584 3614 3096 
Q 4122 2609 4122 1747 
Q 4122 884 3614 396 
Q 3106 -91 2203 -91 
Q 1297 -91 786 396 
Q 275 884 275 1747 
Q 275 2609 786 3096 
Q 1297 3584 2203 3584 
z
" transform="scale(0.015625)"/>
      <path id="DejaVuSans-Bold-75" d="M 500 1363 
L 500 3500 
L 1625 3500 
L 1625 3150 
Q 1625 2866 1622 2436 
Q 1619 2006 1619 1863 
Q 1619 1441 1641 1255 
Q 1663 1069 1716 984 
Q 1784 875 1895 815 
Q 2006 756 2150 756 
Q 2500 756 2700 1025 
Q 2900 1294 2900 1772 
L 2900 3500 
L 4019 3500 
L 4019 0 
L 2900 0 
L 2900 506 
Q 2647 200 2364 54 
Q 2081 -91 1741 -91 
Q 1134 -91 817 281 
Q 500 653 500 1363 
z
" transform="scale(0.015625)"/>
      <path id="DejaVuSans-Bold-67" d="M 2919 594 
Q 2688 288 2409 144 
Q 2131 0 1766 0 
Q 1125 0 706 504 
Q 288 1009 288 1791 
Q 288 2575 706 3076 
Q 1125 3578 1766 3578 
Q 2131 3578 2409 3434 
Q 2688 3291 2919 2981 
L 2919 3500 
L 4044 3500 
L 4044 353 
Q 4044 -491 3511 -936 
Q 2978 -1381 1966 -1381 
Q 1638 -1381 1331 -1331 
Q 1025 -1281 716 -1178 
L 716 -306 
Q 1009 -475 1290 -558 
Q 1572 -641 1856 -641 
Q 2406 -641 2662 -400 
Q 2919 -159 2919 353 
L 2919 594 
z
M 2181 2772 
Q 1834 2772 1640 2515 
Q 1447 2259 1447 1791 
Q 1447 1309 1634 1061 
Q 1822 813 2181 813 
Q 2531 813 2725 1069 
Q 2919 1325 2919 1791 
Q 2919 2259 2725 2515 
Q 2531 2772 2181 2772 
z
" transform="scale(0.015625)"/>
      <path id="DejaVuSans-Bold-70" d="M 1656 506 
L 1656 -1331 
L 538 -1331 
L 538 3500 
L 1656 3500 
L 1656 2988 
Q 1888 3294 2169 3439 
Q 2450 3584 2816 3584 
Q 3463 3584 3878 3070 
Q 4294 2556 4294 1747 
Q 4294 938 3878 423 
Q 3463 -91 2816 -91 
Q 2450 -91 2169 54 
Q 1888 200 1656 506 
z
M 2400 2772 
Q 2041 2772 1848 2508 
Q 1656 2244 1656 1747 
Q 1656 1250 1848 986 
Q 2041 722 2400 722 
Q 2759 722 2948 984 
Q 3138 1247 3138 1747 
Q 3138 2247 2948 2509 
Q 2759 2772 2400 2772 
z
" transform="scale(0.015625)"/>
      <path id="DejaVuSans-Bold-74" d="M 1759 4494 
L 1759 3500 
L 2913 3500 
L 2913 2700 
L 1759 2700 
L 1759 1216 
Q 1759 972 1856 886 
Q 1953 800 2241 800 
L 2816 800 
L 2816 0 
L 1856 0 
Q 1194 0 917 276 
Q 641 553 641 1216 
L 641 2700 
L 84 2700 
L 84 3500 
L 641 3500 
L 641 4494 
L 1759 4494 
z
" transform="scale(0.015625)"/>
      <path id="DejaVuSans-Bold-3a" d="M 716 3500 
L 1844 3500 
L 1844 2291 
L 716 2291 
L 716 3500 
z
M 716 1209 
L 1844 1209 
L 1844 0 
L 716 0 
L 716 1209 
z
" transform="scale(0.015625)"/>
      <path id="DejaVuSans-Bold-20" transform="scale(0.015625)"/>
      <path id="DejaVuSans-Bold-46" d="M 588 4666 
L 3834 4666 
L 3834 3756 
L 1791 3756 
L 1791 2888 
L 3713 2888 
L 3713 1978 
L 1791 1978 
L 1791 0 
L 588 0 
L 588 4666 
z
" transform="scale(0.015625)"/>
      <path id="DejaVuSans-Bold-61" d="M 2106 1575 
Q 1756 1575 1579 1456 
Q 1403 1338 1403 1106 
Q 1403 894 1545 773 
Q 1688 653 1941 653 
Q 2256 653 2472 879 
Q 2688 1106 2688 1447 
L 2688 1575 
L 2106 1575 
z
M 3816 1997 
L 3816 0 
L 2688 0 
L 2688 519 
Q 2463 200 2181 54 
Q 1900 -91 1497 -91 
Q 953 -91 614 226 
Q 275 544 275 1050 
Q 275 1666 698 1953 
Q 1122 2241 2028 2241 
L 2688 2241 
L 2688 2328 
Q 2688 2594 2478 2717 
Q 2269 2841 1825 2841 
Q 1466 2841 1156 2769 
Q 847 2697 581 2553 
L 581 3406 
Q 941 3494 1303 3539 
Q 1666 3584 2028 3584 
Q 2975 3584 3395 3211 
Q 3816 2838 3816 1997 
z
" transform="scale(0.015625)"/>
      <path id="DejaVuSans-Bold-63" d="M 3366 3391 
L 3366 2478 
Q 3138 2634 2908 2709 
Q 2678 2784 2431 2784 
Q 1963 2784 1702 2511 
Q 1441 2238 1441 1747 
Q 1441 1256 1702 982 
Q 1963 709 2431 709 
Q 2694 709 2930 787 
Q 3166 866 3366 1019 
L 3366 103 
Q 3103 6 2833 -42 
Q 2563 -91 2291 -91 
Q 1344 -91 809 395 
Q 275 881 275 1747 
Q 275 2613 809 3098 
Q 1344 3584 2291 3584 
Q 2566 3584 2833 3536 
Q 3100 3488 3366 3391 
z
" transform="scale(0.015625)"/>
      <path id="DejaVuSans-Bold-65" d="M 4031 1759 
L 4031 1441 
L 1416 1441 
Q 1456 1047 1700 850 
Q 1944 653 2381 653 
Q 2734 653 3104 758 
Q 3475 863 3866 1075 
L 3866 213 
Q 3469 63 3072 -14 
Q 2675 -91 2278 -91 
Q 1328 -91 801 392 
Q 275 875 275 1747 
Q 275 2603 792 3093 
Q 1309 3584 2216 3584 
Q 3041 3584 3536 3087 
Q 4031 2591 4031 1759 
z
M 2881 2131 
Q 2881 2450 2695 2645 
Q 2509 2841 2209 2841 
Q 1884 2841 1681 2658 
Q 1478 2475 1428 2131 
L 2881 2131 
z
" transform="scale(0.015625)"/>
      <path id="DejaVuSans-Bold-6c" d="M 538 4863 
L 1656 4863 
L 1656 0 
L 538 0 
L 538 4863 
z
" transform="scale(0.015625)"/>
      <path id="DejaVuSans-Bold-73" d="M 3272 3391 
L 3272 2541 
Q 2913 2691 2578 2766 
Q 2244 2841 1947 2841 
Q 1628 2841 1473 2761 
Q 1319 2681 1319 2516 
Q 1319 2381 1436 2309 
Q 1553 2238 1856 2203 
L 2053 2175 
Q 2913 2066 3209 1816 
Q 3506 1566 3506 1031 
Q 3506 472 3093 190 
Q 2681 -91 1863 -91 
Q 1516 -91 1145 -36 
Q 775 19 384 128 
L 384 978 
Q 719 816 1070 734 
Q 1422 653 1784 653 
Q 2113 653 2278 743 
Q 2444 834 2444 1013 
Q 2444 1163 2330 1236 
Q 2216 1309 1875 1350 
L 1678 1375 
Q 931 1469 631 1722 
Q 331 1975 331 2491 
Q 331 3047 712 3315 
Q 1094 3584 1881 3584 
Q 2191 3584 2531 3537 
Q 2872 3491 3272 3391 
z
" transform="scale(0.015625)"/>
      <path id="DejaVuSans-Bold-42" d="M 2456 2859 
Q 2741 2859 2887 2984 
Q 3034 3109 3034 3353 
Q 3034 3594 2887 3720 
Q 2741 3847 2456 3847 
L 1791 3847 
L 1791 2859 
L 2456 2859 
z
M 2497 819 
Q 2859 819 3042 972 
Q 3225 1125 3225 1434 
Q 3225 1738 3044 1889 
Q 2863 2041 2497 2041 
L 1791 2041 
L 1791 819 
L 2497 819 
z
M 3616 2497 
Q 4003 2384 4215 2081 
Q 4428 1778 4428 1338 
Q 4428 663 3972 331 
Q 3516 0 2584 0 
L 588 0 
L 588 4666 
L 2394 4666 
Q 3366 4666 3802 4372 
Q 4238 4078 4238 3431 
Q 4238 3091 4078 2852 
Q 3919 2613 3616 2497 
z
" transform="scale(0.015625)"/>
      <path id="DejaVuSans-Bold-64" d="M 2919 2988 
L 2919 4863 
L 4044 4863 
L 4044 0 
L 2919 0 
L 2919 506 
Q 2688 197 2409 53 
Q 2131 -91 1766 -91 
Q 1119 -91 703 423 
Q 288 938 288 1747 
Q 288 2556 703 3070 
Q 1119 3584 1766 3584 
Q 2128 3584 2408 3439 
Q 2688 3294 2919 2988 
z
M 2181 722 
Q 2541 722 2730 984 
Q 2919 1247 2919 1747 
Q 2919 2247 2730 2509 
Q 2541 2772 2181 2772 
Q 1825 2772 1636 2509 
Q 1447 2247 1447 1747 
Q 1447 1247 1636 984 
Q 1825 722 2181 722 
z
" transform="scale(0.015625)"/>
      <path id="DejaVuSans-Bold-76" d="M 97 3500 
L 1216 3500 
L 2088 1081 
L 2956 3500 
L 4078 3500 
L 2700 0 
L 1472 0 
L 97 3500 
z
" transform="scale(0.015625)"/>
      <path id="DejaVuSans-Bold-41" d="M 3419 850 
L 1538 850 
L 1241 0 
L 31 0 
L 1759 4666 
L 3194 4666 
L 4922 0 
L 3713 0 
L 3419 850 
z
M 1838 1716 
L 3116 1716 
L 2478 3572 
L 1838 1716 
z
" transform="scale(0.015625)"/>
      <path id="DejaVuSans-Bold-28" d="M 2413 -844 
L 1484 -844 
Q 1006 -72 778 623 
Q 550 1319 550 2003 
Q 550 2688 779 3389 
Q 1009 4091 1484 4856 
L 2413 4856 
Q 2013 4116 1813 3408 
Q 1613 2700 1613 2009 
Q 1613 1319 1811 609 
Q 2009 -100 2413 -844 
z
" transform="scale(0.015625)"/>
      <path id="DejaVuSans-Bold-31" d="M 750 831 
L 1813 831 
L 1813 3847 
L 722 3622 
L 722 4441 
L 1806 4666 
L 2950 4666 
L 2950 831 
L 4013 831 
L 4013 0 
L 750 0 
L 750 831 
z
" transform="scale(0.015625)"/>
      <path id="DejaVuSans-Bold-30" d="M 2944 2338 
Q 2944 3213 2780 3570 
Q 2616 3928 2228 3928 
Q 1841 3928 1675 3570 
Q 1509 3213 1509 2338 
Q 1509 1453 1675 1090 
Q 1841 728 2228 728 
Q 2613 728 2778 1090 
Q 2944 1453 2944 2338 
z
M 4147 2328 
Q 4147 1169 3647 539 
Q 3147 -91 2228 -91 
Q 1306 -91 806 539 
Q 306 1169 306 2328 
Q 306 3491 806 4120 
Q 1306 4750 2228 4750 
Q 3147 4750 3647 4120 
Q 4147 3491 4147 2328 
z
" transform="scale(0.015625)"/>
      <path id="DejaVuSans-Bold-4b" d="M 588 4666 
L 1791 4666 
L 1791 2963 
L 3525 4666 
L 4922 4666 
L 2675 2456 
L 5153 0 
L 3647 0 
L 1791 1838 
L 1791 0 
L 588 0 
L 588 4666 
z
" transform="scale(0.015625)"/>
      <path id="DejaVuSans-Bold-4d" d="M 588 4666 
L 2119 4666 
L 3181 2169 
L 4250 4666 
L 5778 4666 
L 5778 0 
L 4641 0 
L 4641 3413 
L 3566 897 
L 2803 897 
L 1728 3413 
L 1728 0 
L 588 0 
L 588 4666 
z
" transform="scale(0.015625)"/>
      <path id="DejaVuSans-Bold-29" d="M 513 -844 
Q 913 -100 1113 609 
Q 1313 1319 1313 2009 
Q 1313 2700 1113 3408 
Q 913 4116 513 4856 
L 1441 4856 
Q 1916 4091 2145 3389 
Q 2375 2688 2375 2003 
Q 2375 1319 2147 623 
Q 1919 -72 1441 -844 
L 513 -844 
z
" transform="scale(0.015625)"/>
     </defs>
     <use xlink:href="#DejaVuSans-Bold-54"/>
     <use xlink:href="#DejaVuSans-Bold-68" x="68.212891"/>
     <use xlink:href="#DejaVuSans-Bold-72" x="139.404297"/>
     <use xlink:href="#DejaVuSans-Bold-6f" x="188.720703"/>
     <use xlink:href="#DejaVuSans-Bold-75" x="257.421875"/>
     <use xlink:href="#DejaVuSans-Bold-67" x="328.613281"/>
     <use xlink:href="#DejaVuSans-Bold-68" x="400.195312"/>
     <use xlink:href="#DejaVuSans-Bold-70" x="471.386719"/>
     <use xlink:href="#DejaVuSans-Bold-75" x="542.96875"/>
     <use xlink:href="#DejaVuSans-Bold-74" x="614.160156"/>
     <use xlink:href="#DejaVuSans-Bold-3a" x="661.962891"/>
     <use xlink:href="#DejaVuSans-Bold-20" x="701.953125"/>
     <use xlink:href="#DejaVuSans-Bold-46" x="736.767578"/>
     <use xlink:href="#DejaVuSans-Bold-61" x="799.203125"/>
     <use xlink:href="#DejaVuSans-Bold-63" x="866.683594"/>
     <use xlink:href="#DejaVuSans-Bold-65" x="925.960938"/>
     <use xlink:href="#DejaVuSans-Bold-46" x="993.783203"/>
     <use xlink:href="#DejaVuSans-Bold-6c" x="1062.09375"/>
     <use xlink:href="#DejaVuSans-Bold-61" x="1096.371094"/>
     <use xlink:href="#DejaVuSans-Bold-73" x="1163.851562"/>
     <use xlink:href="#DejaVuSans-Bold-68" x="1223.373047"/>
     <use xlink:href="#DejaVuSans-Bold-20" x="1294.564453"/>
     <use xlink:href="#DejaVuSans-Bold-42" x="1329.378906"/>
     <use xlink:href="#DejaVuSans-Bold-61" x="1405.599609"/>
     <use xlink:href="#DejaVuSans-Bold-74" x="1473.080078"/>
     <use xlink:href="#DejaVuSans-Bold-63" x="1520.882812"/>
     <use xlink:href="#DejaVuSans-Bold-68" x="1580.160156"/>
     <use xlink:href="#DejaVuSans-Bold-65" x="1651.351562"/>
     <use xlink:href="#DejaVuSans-Bold-64" x="1719.173828"/>
     <use xlink:href="#DejaVuSans-Bold-20" x="1790.755859"/>
     <use xlink:href="#DejaVuSans-Bold-76" x="1825.570312"/>
     <use xlink:href="#DejaVuSans-Bold-73" x="1890.755859"/>
     <use xlink:href="#DejaVuSans-Bold-20" x="1950.277344"/>
     <use xlink:href="#DejaVuSans-Bold-41" x="1985.091797"/>
     <use xlink:href="#DejaVuSans-Bold-6c" x="2062.484375"/>
     <use xlink:href="#DejaVuSans-Bold-6c" x="2096.761719"/>
     <use xlink:href="#DejaVuSans-Bold-20" x="2131.039062"/>
     <use xlink:href="#DejaVuSans-Bold-28" x="2165.853516"/>
     <use xlink:href="#DejaVuSans-Bold-31" x="2211.556641"/>
     <use xlink:href="#DejaVuSans-Bold-30" x="2281.136719"/>
     <use xlink:href="#DejaVuSans-Bold-30" x="2350.716797"/>
     <use xlink:href="#DejaVuSans-Bold-4b" x="2420.296875"/>
     <use xlink:href="#DejaVuSans-Bold-20" x="2497.787109"/>
     <use xlink:href="#DejaVuSans-Bold-74" x="2532.601562"/>
     <use xlink:href="#DejaVuSans-Bold-6f" x="2580.404297"/>
     <use xlink:href="#DejaVuSans-Bold-20" x="2649.105469"/>
     <use xlink:href="#DejaVuSans-Bold-31" x="2683.919922"/>
     <use xlink:href="#DejaVuSans-Bold-4d" x="2753.5"/>
     <use xlink:href="#DejaVuSans-Bold-29" x="2853.011719"/>
    </g>
    <!-- Bold = batched (all cores), dotted = single-query -->
    <g transform="translate(217.492333 33.624125) scale(0.14 -0.14)">
     <defs>
      <path id="DejaVuSans-Bold-3d" d="M 678 3084 
L 4684 3084 
L 4684 2350 
L 678 2350 
L 678 3084 
z
M 678 1663 
L 4684 1663 
L 4684 922 
L 678 922 
L 678 1663 
z
" transform="scale(0.015625)"/>
      <path id="DejaVuSans-Bold-62" d="M 2400 722 
Q 2759 722 2948 984 
Q 3138 1247 3138 1747 
Q 3138 2247 2948 2509 
Q 2759 2772 2400 2772 
Q 2041 2772 1848 2508 
Q 1656 2244 1656 1747 
Q 1656 1250 1848 986 
Q 2041 722 2400 722 
z
M 1656 2988 
Q 1888 3294 2169 3439 
Q 2450 3584 2816 3584 
Q 3463 3584 3878 3070 
Q 4294 2556 4294 1747 
Q 4294 938 3878 423 
Q 3463 -91 2816 -91 
Q 2450 -91 2169 54 
Q 1888 200 1656 506 
L 1656 0 
L 538 0 
L 538 4863 
L 1656 4863 
L 1656 2988 
z
" transform="scale(0.015625)"/>
      <path id="DejaVuSans-Bold-2c" d="M 653 1209 
L 1778 1209 
L 1778 256 
L 1006 -909 
L 341 -909 
L 653 256 
L 653 1209 
z
" transform="scale(0.015625)"/>
      <path id="DejaVuSans-Bold-69" d="M 538 3500 
L 1656 3500 
L 1656 0 
L 538 0 
L 538 3500 
z
M 538 4863 
L 1656 4863 
L 1656 3950 
L 538 3950 
L 538 4863 
z
" transform="scale(0.015625)"/>
      <path id="DejaVuSans-Bold-6e" d="M 4056 2131 
L 4056 0 
L 2931 0 
L 2931 347 
L 2931 1631 
Q 2931 2084 2911 2256 
Q 2891 2428 2841 2509 
Q 2775 2619 2662 2680 
Q 2550 2741 2406 2741 
Q 2056 2741 1856 2470 
Q 1656 2200 1656 1722 
L 1656 0 
L 538 0 
L 538 3500 
L 1656 3500 
L 1656 2988 
Q 1909 3294 2193 3439 
Q 2478 3584 2822 3584 
Q 3428 3584 3742 3212 
Q 4056 2841 4056 2131 
z
" transform="scale(0.015625)"/>
      <path id="DejaVuSans-Bold-2d" d="M 347 2297 
L 2309 2297 
L 2309 1388 
L 347 1388 
L 347 2297 
z
" transform="scale(0.015625)"/>
      <path id="DejaVuSans-Bold-71" d="M 2181 2772 
Q 1825 2772 1636 2509 
Q 1447 2247 1447 1747 
Q 1447 1247 1636 984 
Q 1825 722 2181 722 
Q 2541 722 2730 984 
Q 2919 1247 2919 1747 
Q 2919 2247 2730 2509 
Q 2541 2772 2181 2772 
z
M 2919 506 
Q 2688 197 2409 53 
Q 2131 -91 1766 -91 
Q 1119 -91 703 423 
Q 288 938 288 1747 
Q 288 2556 703 3067 
Q 1119 3578 1766 3578 
Q 2131 3578 2409 3434 
Q 2688 3291 2919 2981 
L 2919 3500 
L 4044 3500 
L 4044 -1331 
L 2919 -1331 
L 2919 506 
z
" transform="scale(0.015625)"/>
      <path id="DejaVuSans-Bold-79" d="M 78 3500 
L 1197 3500 
L 2138 1125 
L 2938 3500 
L 4056 3500 
L 2584 -331 
Q 2363 -916 2067 -1148 
Q 1772 -1381 1288 -1381 
L 641 -1381 
L 641 -647 
L 991 -647 
Q 1275 -647 1404 -556 
Q 1534 -466 1606 -231 
L 1638 -134 
L 78 3500 
z
" transform="scale(0.015625)"/>
     </defs>
     <use xlink:href="#DejaVuSans-Bold-42"/>
     <use xlink:href="#DejaVuSans-Bold-6f" x="76.220703"/>
     <use xlink:href="#DejaVuSans-Bold-6c" x="144.921875"/>
     <use xlink:href="#DejaVuSans-Bold-64" x="179.199219"/>
     <use xlink:href="#DejaVuSans-Bold-20" x="250.78125"/>
     <use xlink:href="#DejaVuSans-Bold-3d" x="285.595703"/>
     <use xlink:href="#DejaVuSans-Bold-20" x="369.384766"/>
     <use xlink:href="#DejaVuSans-Bold-62" x="404.199219"/>
     <use xlink:href="#DejaVuSans-Bold-61" x="475.78125"/>
     <use xlink:href="#DejaVuSans-Bold-74" x="543.261719"/>
     <use xlink:href="#DejaVuSans-Bold-63" x="591.064453"/>
     <use xlink:href="#DejaVuSans-Bold-68" x="650.341797"/>
     <use xlink:href="#DejaVuSans-Bold-65" x="721.533203"/>
     <use xlink:href="#DejaVuSans-Bold-64" x="789.355469"/>
     <use xlink:href="#DejaVuSans-Bold-20" x="860.9375"/>
     <use xlink:href="#DejaVuSans-Bold-28" x="895.751953"/>
     <use xlink:href="#DejaVuSans-Bold-61" x="941.455078"/>
     <use xlink:href="#DejaVuSans-Bold-6c" x="1008.935547"/>
     <use xlink:href="#DejaVuSans-Bold-6c" x="1043.212891"/>
     <use xlink:href="#DejaVuSans-Bold-20" x="1077.490234"/>
     <use xlink:href="#DejaVuSans-Bold-63" x="1112.304688"/>
     <use xlink:href="#DejaVuSans-Bold-6f" x="1171.582031"/>
     <use xlink:href="#DejaVuSans-Bold-72" x="1240.283203"/>
     <use xlink:href="#DejaVuSans-Bold-65" x="1289.599609"/>
     <use xlink:href="#DejaVuSans-Bold-73" x="1357.421875"/>
     <use xlink:href="#DejaVuSans-Bold-29" x="1416.943359"/>
     <use xlink:href="#DejaVuSans-Bold-2c" x="1462.646484"/>
     <use xlink:href="#DejaVuSans-Bold-20" x="1500.634766"/>
     <use xlink:href="#DejaVuSans-Bold-64" x="1535.449219"/>
     <use xlink:href="#DejaVuSans-Bold-6f" x="1607.03125"/>
     <use xlink:href="#DejaVuSans-Bold-74" x="1675.732422"/>
     <use xlink:href="#DejaVuSans-Bold-74" x="1723.535156"/>
     <use xlink:href="#DejaVuSans-Bold-65" x="1771.337891"/>
     <use xlink:href="#DejaVuSans-Bold-64" x="1839.160156"/>
     <use xlink:href="#DejaVuSans-Bold-20" x="1910.742188"/>
     <use xlink:href="#DejaVuSans-Bold-3d" x="1945.556641"/>
     <use xlink:href="#DejaVuSans-Bold-20" x="2029.345703"/>
     <use xlink:href="#DejaVuSans-Bold-73" x="2064.160156"/>
     <use xlink:href="#DejaVuSans-Bold-69" x="2123.681641"/>
     <use xlink:href="#DejaVuSans-Bold-6e" x="2157.958984"/>
     <use xlink:href="#DejaVuSans-Bold-67" x="2229.150391"/>
     <use xlink:href="#DejaVuSans-Bold-6c" x="2300.732422"/>
     <use xlink:href="#DejaVuSans-Bold-65" x="2335.009766"/>
     <use xlink:href="#DejaVuSans-Bold-2d" x="2402.832031"/>
     <use xlink:href="#DejaVuSans-Bold-71" x="2444.335938"/>
     <use xlink:href="#DejaVuSans-Bold-75" x="2515.917969"/>
     <use xlink:href="#DejaVuSans-Bold-65" x="2587.109375"/>
     <use xlink:href="#DejaVuSans-Bold-72" x="2654.931641"/>
     <use xlink:href="#DejaVuSans-Bold-79" x="2704.248047"/>
    </g>
   </g>
   <g id="legend_1">
    <g id="patch_7">
     <path d="M 649.356698 126.086 
L 767.229979 126.086 
Q 769.029979 126.086 769.029979 124.286 
L 769.029979 45.924125 
Q 769.029979 44.124125 767.229979 44.124125 
L 649.356698 44.124125 
Q 647.556698 44.124125 647.556698 45.924125 
L 647.556698 124.286 
Q 647.556698 126.086 649.356698 126.086 
z
" style="fill: #ffffff; opacity: 0.8; stroke: #cccccc; stroke-linejoin: miter"/>
    </g>
    <g id="line2d_38">
     <path d="M 651.156698 51.412719 
L 660.156698 51.412719 
L 669.156698 51.412719 
" style="fill: none; stroke: #10b981; stroke-width: 3; stroke-linecap: square"/>
     <g>
      <use xlink:href="#ma5d5885b59" x="660.156698" y="51.412719" style="fill: #10b981; stroke: #10b981; stroke-linejoin: miter"/>
     </g>
    </g>
    <g id="text_11">
     <!-- FaceFlash BATCHED -->
     <g transform="translate(676.356698 54.562719) scale(0.09 -0.09)">
      <defs>
       <path id="DejaVuSans-46" d="M 628 4666 
L 3309 4666 
L 3309 4134 
L 1259 4134 
L 1259 2759 
L 3109 2759 
L 3109 2228 
L 1259 2228 
L 1259 0 
L 628 0 
L 628 4666 
z
" transform="scale(0.015625)"/>
       <path id="DejaVuSans-42" d="M 1259 2228 
L 1259 519 
L 2272 519 
Q 2781 519 3026 730 
Q 3272 941 3272 1375 
Q 3272 1813 3026 2020 
Q 2781 2228 2272 2228 
L 1259 2228 
z
M 1259 4147 
L 1259 2741 
L 2194 2741 
Q 2656 2741 2882 2914 
Q 3109 3088 3109 3444 
Q 3109 3797 2882 3972 
Q 2656 4147 2194 4147 
L 1259 4147 
z
M 628 4666 
L 2241 4666 
Q 2963 4666 3353 4366 
Q 3744 4066 3744 3513 
Q 3744 3084 3544 2831 
Q 3344 2578 2956 2516 
Q 3422 2416 3680 2098 
Q 3938 1781 3938 1306 
Q 3938 681 3513 340 
Q 3088 0 2303 0 
L 628 0 
L 628 4666 
z
" transform="scale(0.015625)"/>
       <path id="DejaVuSans-41" d="M 2188 4044 
L 1331 1722 
L 3047 1722 
L 2188 4044 
z
M 1831 4666 
L 2547 4666 
L 4325 0 
L 3669 0 
L 3244 1197 
L 1141 1197 
L 716 0 
L 50 0 
L 1831 4666 
z
" transform="scale(0.015625)"/>
       <path id="DejaVuSans-43" d="M 4122 4306 
L 4122 3641 
Q 3803 3938 3442 4084 
Q 3081 4231 2675 4231 
Q 1875 4231 1450 3742 
Q 1025 3253 1025 2328 
Q 1025 1406 1450 917 
Q 1875 428 2675 428 
Q 3081 428 3442 575 
Q 3803 722 4122 1019 
L 4122 359 
Q 3791 134 3420 21 
Q 3050 -91 2638 -91 
Q 1578 -91 968 557 
Q 359 1206 359 2328 
Q 359 3453 968 4101 
Q 1578 4750 2638 4750 
Q 3056 4750 3426 4639 
Q 3797 4528 4122 4306 
z
" transform="scale(0.015625)"/>
       <path id="DejaVuSans-48" d="M 628 4666 
L 1259 4666 
L 1259 2753 
L 3553 2753 
L 3553 4666 
L 4184 4666 
L 4184 0 
L 3553 0 
L 3553 2222 
L 1259 2222 
L 1259 0 
L 628 0 
L 628 4666 
z
" transform="scale(0.015625)"/>
       <path id="DejaVuSans-45" d="M 628 4666 
L 3578 4666 
L 3578 4134 
L 1259 4134 
L 1259 2753 
L 3481 2753 
L 3481 2222 
L 1259 2222 
L 1259 531 
L 3634 531 
L 3634 0 
L 628 0 
L 628 4666 
z
" transform="scale(0.015625)"/>
      </defs>
      <use xlink:href="#DejaVuSans-46"/>
      <use xlink:href="#DejaVuSans-61" x="48.394531"/>
      <use xlink:href="#DejaVuSans-63" x="109.673828"/>
      <use xlink:href="#DejaVuSans-65" x="164.654297"/>
      <use xlink:href="#DejaVuSans-46" x="226.177734"/>
      <use xlink:href="#DejaVuSans-6c" x="283.697266"/>
      <use xlink:href="#DejaVuSans-61" x="311.480469"/>
      <use xlink:href="#DejaVuSans-73" x="372.759766"/>
      <use xlink:href="#DejaVuSans-68" x="424.859375"/>
      <use xlink:href="#DejaVuSans-20" x="488.238281"/>
      <use xlink:href="#DejaVuSans-42" x="520.025391"/>
      <use xlink:href="#DejaVuSans-41" x="588.628906"/>
      <use xlink:href="#DejaVuSans-54" x="649.287109"/>
      <use xlink:href="#DejaVuSans-43" x="704.496094"/>
      <use xlink:href="#DejaVuSans-48" x="774.320312"/>
      <use xlink:href="#DejaVuSans-45" x="849.515625"/>
      <use xlink:href="#DejaVuSans-44" x="912.699219"/>
     </g>
    </g>
    <g id="line2d_39">
     <path d="M 651.156698 64.623031 
L 660.156698 64.623031 
L 669.156698 64.623031 
" style="fill: none; stroke: #a78bfa; stroke-width: 2.5; stroke-linecap: square"/>
     <g>
      <use xlink:href="#m912672e2c0" x="660.156698" y="64.623031" style="fill: #a78bfa; stroke: #a78bfa; stroke-linejoin: miter"/>
     </g>
    </g>
    <g id="text_12">
     <!-- HNSW BATCHED -->
     <g transform="translate(676.356698 67.773031) scale(0.09 -0.09)">
      <defs>
       <path id="DejaVuSans-4e" d="M 628 4666 
L 1478 4666 
L 3547 763 
L 3547 4666 
L 4159 4666 
L 4159 0 
L 3309 0 
L 1241 3903 
L 1241 0 
L 628 0 
L 628 4666 
z
" transform="scale(0.015625)"/>
       <path id="DejaVuSans-57" d="M 213 4666 
L 850 4666 
L 1831 722 
L 2809 4666 
L 3519 4666 
L 4500 722 
L 5478 4666 
L 6119 4666 
L 4947 0 
L 4153 0 
L 3169 4050 
L 2175 0 
L 1381 0 
L 213 4666 
z
" transform="scale(0.015625)"/>
      </defs>
      <use xlink:href="#DejaVuSans-48"/>
      <use xlink:href="#DejaVuSans-4e" x="75.195312"/>
      <use xlink:href="#DejaVuSans-53" x="150"/>
      <use xlink:href="#DejaVuSans-57" x="213.476562"/>
      <use xlink:href="#DejaVuSans-20" x="312.353516"/>
      <use xlink:href="#DejaVuSans-42" x="344.140625"/>
      <use xlink:href="#DejaVuSans-41" x="412.744141"/>
      <use xlink:href="#DejaVuSans-54" x="473.402344"/>
      <use xlink:href="#DejaVuSans-43" x="528.611328"/>
      <use xlink:href="#DejaVuSans-48" x="598.435547"/>
      <use xlink:href="#DejaVuSans-45" x="673.630859"/>
      <use xlink:href="#DejaVuSans-44" x="736.814453"/>
     </g>
    </g>
    <g id="line2d_40">
     <path d="M 651.156698 77.833344 
L 660.156698 77.833344 
L 669.156698 77.833344 
" style="fill: none; stroke-dasharray: 1.5,2.475; stroke-dashoffset: 0; stroke: #10b981; stroke-opacity: 0.7; stroke-width: 1.5"/>
     <g>
      <use xlink:href="#m26e954f5b2" x="660.156698" y="77.833344" style="fill: #10b981; fill-opacity: 0.7; stroke: #10b981; stroke-opacity: 0.7"/>
     </g>
    </g>
    <g id="text_13">
     <!-- FaceFlash (single) -->
     <g transform="translate(676.356698 80.983344) scale(0.09 -0.09)">
      <defs>
       <path id="DejaVuSans-6e" d="M 3513 2113 
L 3513 0 
L 2938 0 
L 2938 2094 
Q 2938 2591 2744 2837 
Q 2550 3084 2163 3084 
Q 1697 3084 1428 2787 
Q 1159 2491 1159 1978 
L 1159 0 
L 581 0 
L 581 3500 
L 1159 3500 
L 1159 2956 
Q 1366 3272 1645 3428 
Q 1925 3584 2291 3584 
Q 2894 3584 3203 3211 
Q 3513 2838 3513 2113 
z
" transform="scale(0.015625)"/>
      </defs>
      <use xlink:href="#DejaVuSans-46"/>
      <use xlink:href="#DejaVuSans-61" x="48.394531"/>
      <use xlink:href="#DejaVuSans-63" x="109.673828"/>
      <use xlink:href="#DejaVuSans-65" x="164.654297"/>
      <use xlink:href="#DejaVuSans-46" x="226.177734"/>
      <use xlink:href="#DejaVuSans-6c" x="283.697266"/>
      <use xlink:href="#DejaVuSans-61" x="311.480469"/>
      <use xlink:href="#DejaVuSans-73" x="372.759766"/>
      <use xlink:href="#DejaVuSans-68" x="424.859375"/>
      <use xlink:href="#DejaVuSans-20" x="488.238281"/>
      <use xlink:href="#DejaVuSans-28" x="520.025391"/>
      <use xlink:href="#DejaVuSans-73" x="559.039062"/>
      <use xlink:href="#DejaVuSans-69" x="611.138672"/>
      <use xlink:href="#DejaVuSans-6e" x="638.921875"/>
      <use xlink:href="#DejaVuSans-67" x="702.300781"/>
      <use xlink:href="#DejaVuSans-6c" x="765.777344"/>
      <use xlink:href="#DejaVuSans-65" x="793.560547"/>
      <use xlink:href="#DejaVuSans-29" x="855.083984"/>
     </g>
    </g>
    <g id="line2d_41">
     <path d="M 651.156698 91.043656 
L 660.156698 91.043656 
L 669.156698 91.043656 
" style="fill: none; stroke-dasharray: 1.5,2.475; stroke-dashoffset: 0; stroke: #6366f1; stroke-opacity: 0.7; stroke-width: 1.5"/>
     <g>
      <use xlink:href="#mfcc4e1c59b" x="660.156698" y="91.043656" style="fill: #6366f1; fill-opacity: 0.7; stroke: #6366f1; stroke-opacity: 0.7; stroke-linejoin: miter"/>
     </g>
    </g>
    <g id="text_14">
     <!-- HNSW (single) -->
     <g transform="translate(676.356698 94.193656) scale(0.09 -0.09)">
      <use xlink:href="#DejaVuSans-48"/>
      <use xlink:href="#DejaVuSans-4e" x="75.195312"/>
      <use xlink:href="#DejaVuSans-53" x="150"/>
      <use xlink:href="#DejaVuSans-57" x="213.476562"/>
      <use xlink:href="#DejaVuSans-20" x="312.353516"/>
      <use xlink:href="#DejaVuSans-28" x="344.140625"/>
      <use xlink:href="#DejaVuSans-73" x="383.154297"/>
      <use xlink:href="#DejaVuSans-69" x="435.253906"/>
      <use xlink:href="#DejaVuSans-6e" x="463.037109"/>
      <use xlink:href="#DejaVuSans-67" x="526.416016"/>
      <use xlink:href="#DejaVuSans-6c" x="589.892578"/>
      <use xlink:href="#DejaVuSans-65" x="617.675781"/>
      <use xlink:href="#DejaVuSans-29" x="679.199219"/>
     </g>
    </g>
    <g id="line2d_42">
     <path d="M 651.156698 104.253969 
L 660.156698 104.253969 
L 669.156698 104.253969 
" style="fill: none; stroke-dasharray: 1.5,2.475; stroke-dashoffset: 0; stroke: #f59e0b; stroke-opacity: 0.7; stroke-width: 1.5"/>
     <g>
      <use xlink:href="#m4b763ccbfb" x="660.156698" y="104.253969" style="fill: #f59e0b; fill-opacity: 0.7; stroke: #f59e0b; stroke-opacity: 0.7; stroke-linejoin: miter"/>
     </g>
    </g>
    <g id="text_15">
     <!-- USearch (single) -->
     <g transform="translate(676.356698 107.403969) scale(0.09 -0.09)">
      <defs>
       <path id="DejaVuSans-55" d="M 556 4666 
L 1191 4666 
L 1191 1831 
Q 1191 1081 1462 751 
Q 1734 422 2344 422 
Q 2950 422 3222 751 
Q 3494 1081 3494 1831 
L 3494 4666 
L 4128 4666 
L 4128 1753 
Q 4128 841 3676 375 
Q 3225 -91 2344 -91 
Q 1459 -91 1007 375 
Q 556 841 556 1753 
L 556 4666 
z
" transform="scale(0.015625)"/>
      </defs>
      <use xlink:href="#DejaVuSans-55"/>
      <use xlink:href="#DejaVuSans-53" x="73.193359"/>
      <use xlink:href="#DejaVuSans-65" x="136.669922"/>
      <use xlink:href="#DejaVuSans-61" x="198.193359"/>
      <use xlink:href="#DejaVuSans-72" x="259.472656"/>
      <use xlink:href="#DejaVuSans-63" x="298.335938"/>
      <use xlink:href="#DejaVuSans-68" x="353.316406"/>
      <use xlink:href="#DejaVuSans-20" x="416.695312"/>
      <use xlink:href="#DejaVuSans-28" x="448.482422"/>
      <use xlink:href="#DejaVuSans-73" x="487.496094"/>
      <use xlink:href="#DejaVuSans-69" x="539.595703"/>
      <use xlink:href="#DejaVuSans-6e" x="567.378906"/>
      <use xlink:href="#DejaVuSans-67" x="630.757812"/>
      <use xlink:href="#DejaVuSans-6c" x="694.234375"/>
      <use xlink:href="#DejaVuSans-65" x="722.017578"/>
      <use xlink:href="#DejaVuSans-29" x="783.541016"/>
     </g>
    </g>
    <g id="line2d_43">
     <path d="M 651.156698 117.464281 
L 660.156698 117.464281 
L 669.156698 117.464281 
" style="fill: none; stroke-dasharray: 1.5,2.475; stroke-dashoffset: 0; stroke: #ef4444; stroke-opacity: 0.7; stroke-width: 1.5"/>
     <g>
      <use xlink:href="#m882fb8666d" x="660.156698" y="117.464281" style="fill: #ef4444; fill-opacity: 0.7; stroke: #ef4444; stroke-opacity: 0.7; stroke-linejoin: miter"/>
     </g>
    </g>
    <g id="text_16">
     <!-- ScaNN (single) -->
     <g transform="translate(676.356698 120.614281) scale(0.09 -0.09)">
      <use xlink:href="#DejaVuSans-53"/>
      <use xlink:href="#DejaVuSans-63" x="63.476562"/>
      <use xlink:href="#DejaVuSans-61" x="118.457031"/>
      <use xlink:href="#DejaVuSans-4e" x="179.736328"/>
      <use xlink:href="#DejaVuSans-4e" x="254.541016"/>
      <use xlink:href="#DejaVuSans-20" x="329.345703"/>
      <use xlink:href="#DejaVuSans-28" x="361.132812"/>
      <use xlink:href="#DejaVuSans-73" x="400.146484"/>
      <use xlink:href="#DejaVuSans-69" x="452.246094"/>
      <use xlink:href="#DejaVuSans-6e" x="480.029297"/>
      <use xlink:href="#DejaVuSans-67" x="543.408203"/>
      <use xlink:href="#DejaVuSans-6c" x="606.884766"/>
      <use xlink:href="#DejaVuSans-65" x="634.667969"/>
      <use xlink:href="#DejaVuSans-29" x="696.191406"/>
     </g>
    </g>
   </g>
  </g>
 </g>
 <defs>
  <clipPath id="p494d07da87">
   <rect x="49.17375" y="39.624125" width="724.356229" height="340.84"/>
  </clipPath>
 </defs>
</svg>
